<svg xmlns="http://www.w3.org/2000/svg" width="210" height="122.00685502824454" viewBox="0 0 210 122.00685502824454" class="editor-view__logo-preview" data-v-8d8ae3dd="" data-v-b9d2a614=""><svg id="mark" viewBox="0 0 100 74.96900177001953" width="75" height="56.226751327514656" x="67.5" y="0" data-v-8d8ae3dd="" style="fill: rgb(101, 47, 249);"><rect x="0" y="0" width="100%" height="100%" fill="none" data-v-8d8ae3dd=""></rect><g data-v-8d8ae3dd=""><path xmlns="http://www.w3.org/2000/svg" d="M98.169,17.709L82.294,1.833C81.122,0.661,79.528,0,77.875,0H22.128  c-1.657,0-3.247,0.661-4.419,1.833L1.834,17.709c-1.228,1.225-1.84,2.841-1.834,4.46c0.009,1.47,0.534,2.935,1.581,4.112  L45.328,72.87c1.187,1.337,2.889,2.1,4.672,2.1c1.782,0,3.485-0.763,4.669-2.1l43.75-46.588c1.068-1.202,1.593-2.708,1.581-4.213  C99.987,20.488,99.371,18.914,98.169,17.709z M56.934,21.875H43.062L50,16.098L56.934,21.875z M52.444,14.062l8.536-7.118  l6.308,6.307l-7.913,6.59L52.444,14.062z M40.625,19.841l-7.913-6.59l6.306-6.307l8.541,7.118L40.625,19.841z M57.782,25L50,63.917  L42.218,25H57.782z M60.968,25H76.3L53.302,63.342L60.968,25z M61.811,21.875l7.696-6.409l6.408,6.409H61.811z M64.709,6.25h10.975  l-5.987,4.991L64.709,6.25z M50,12.032L43.062,6.25h13.869L50,12.032z M30.299,11.241L24.312,6.25h10.979L30.299,11.241z   M30.493,15.466l7.695,6.409H24.084L30.493,15.466z M39.032,25l7.665,38.342L23.697,25H39.032z M39.7,57.746L8.949,25h11.107  L39.7,57.746z M79.943,25h11.108L60.297,57.751L79.943,25z M80.334,21.875l-8.416-8.415l7.178-5.984l14.397,14.399H80.334z   M20.894,7.469l7.19,5.991l-8.418,8.415H6.269L20.894,7.469z"></path></g></svg><svg id="name" viewBox="0 0 133.6300048828125 29.808000564575195" width="133" height="29.66746935738839" x="38.5" y="64.22675132751465" data-v-8d8ae3dd="" style="fill: rgb(101, 47, 249);"><rect x="0" y="0" width="100%" height="100%" fill="none" data-v-8d8ae3dd=""></rect><g data-v-8d8ae3dd=""><path xmlns="http://www.w3.org/2000/svg" d="M17.11 0L17.11 0Q19.04 0 21.27 0.32Q23.51 0.64 24.79 1.24L24.79 1.24Q25.21 1.38 25.35 1.59Q25.48 1.79 25.53 2.30L25.53 2.30L26.08 8.69Q26.08 8.83 25.87 8.88Q25.67 8.92 25.58 8.74L25.58 8.74Q24.06 5.20 21.46 3.17Q18.86 1.15 15.32 1.15L15.32 1.15Q12.24 1.15 10.10 2.71Q7.96 4.28 6.88 7.06Q5.80 9.84 5.80 13.52L5.80 13.52Q5.80 16.70 6.58 19.48Q7.36 22.26 8.79 24.36Q10.21 26.45 12.19 27.65Q14.17 28.84 16.56 28.84L16.56 28.84Q19.50 28.84 21.83 26.91Q24.15 24.98 25.99 20.93L25.99 20.93Q26.08 20.75 26.31 20.79Q26.54 20.84 26.54 20.98L26.54 20.98L25.85 27.23Q25.76 27.78 25.64 27.95Q25.53 28.11 25.12 28.29L25.12 28.29Q23 29.07 20.86 29.44Q18.72 29.81 16.70 29.81L16.70 29.81Q12.24 29.81 9.06 28.45Q5.89 27.09 3.89 24.86Q1.89 22.63 0.94 19.99Q0 17.34 0 14.77L0 14.77Q0 11.36 1.40 8.65Q2.81 5.93 5.22 4.00Q7.64 2.07 10.70 1.04Q13.75 0 17.11 0ZM49.77 12.74L50.65 14.03L44.99 29.21Q44.94 29.39 44.50 29.39Q44.07 29.39 43.98 29.21L43.98 29.21L32.25 4.32Q31.60 2.94 31.14 2.25Q30.68 1.56 30.15 1.31Q29.62 1.06 28.75 1.06L28.75 1.06Q28.61 1.06 28.61 0.78Q28.61 0.51 28.75 0.51L28.75 0.51Q29.30 0.51 29.60 0.55Q29.90 0.60 30.43 0.62Q30.96 0.64 32.11 0.64L32.11 0.64Q34.18 0.64 35.40 0.62Q36.62 0.60 37.40 0.55Q38.18 0.51 38.78 0.51L38.78 0.51Q38.92 0.51 38.92 0.78Q38.92 1.06 38.78 1.06L38.78 1.06Q36.89 1.06 36.71 1.82Q36.52 2.58 37.72 5.15L37.72 5.15L46.41 23.60L44.48 26.77L49.77 12.74ZM70.70 0.51L70.70 0.51Q70.79 0.51 70.79 0.78Q70.79 1.06 70.70 1.06L70.70 1.06Q69 1.06 67.50 2.51Q66.01 3.96 65.04 6.49L65.04 6.49L56.53 29.21Q56.49 29.39 56.05 29.39Q55.61 29.39 55.52 29.21L55.52 29.21L43.79 4.32Q43.06 2.81 42.37 1.93Q41.68 1.06 40.85 1.06L40.85 1.06Q40.71 1.06 40.71 0.78Q40.71 0.51 40.85 0.51L40.85 0.51Q41.31 0.51 41.58 0.55Q41.86 0.60 42.30 0.62Q42.73 0.64 43.70 0.64L43.70 0.64Q46.28 0.64 47.40 0.57Q48.53 0.51 49.27 0.51L49.27 0.51Q49.40 0.51 49.40 0.78Q49.40 1.06 49.27 1.06L49.27 1.06Q48.02 1.06 48.05 1.82Q48.07 2.58 49.27 5.15L49.27 5.15L58.05 23.60L56.07 26.77L63.53 6.81Q64.45 4.32 63.83 2.69Q63.20 1.06 61.46 1.06L61.46 1.06Q61.32 1.06 61.32 0.78Q61.32 0.51 61.46 0.51L61.46 0.51Q62.65 0.51 63.78 0.57Q64.91 0.64 66.61 0.64L66.61 0.64Q67.90 0.64 68.72 0.57Q69.55 0.51 70.70 0.51ZM50.92 14.03L50.05 12.74L52.44 6.35Q53.50 3.63 53.47 2.35Q53.45 1.06 52.30 1.06L52.30 1.06Q52.16 1.06 52.16 0.78Q52.16 0.51 52.30 0.51L52.30 0.51Q52.76 0.51 52.90 0.55Q53.04 0.60 53.47 0.62Q53.91 0.64 55.29 0.64L55.29 0.64Q56.44 0.64 57.16 0.57Q57.87 0.51 58.88 0.51L58.88 0.51Q58.97 0.51 58.97 0.78Q58.97 1.06 58.88 1.06L58.88 1.06Q57.32 1.06 56.07 2.39Q54.83 3.73 53.77 6.49L53.77 6.49L50.92 14.03ZM91.68 12.74L92.55 14.03L86.89 29.21Q86.85 29.39 86.41 29.39Q85.97 29.39 85.88 29.21L85.88 29.21L74.15 4.32Q73.51 2.94 73.05 2.25Q72.59 1.56 72.06 1.31Q71.53 1.06 70.66 1.06L70.66 1.06Q70.52 1.06 70.52 0.78Q70.52 0.51 70.66 0.51L70.66 0.51Q71.21 0.51 71.51 0.55Q71.81 0.60 72.34 0.62Q72.86 0.64 74.01 0.64L74.01 0.64Q76.08 0.64 77.30 0.62Q78.52 0.60 79.30 0.55Q80.09 0.51 80.68 0.51L80.68 0.51Q80.82 0.51 80.82 0.78Q80.82 1.06 80.68 1.06L80.68 1.06Q78.80 1.06 78.61 1.82Q78.43 2.58 79.63 5.15L79.63 5.15L88.32 23.60L86.39 26.77L91.68 12.74ZM112.61 0.51L112.61 0.51Q112.70 0.51 112.70 0.78Q112.70 1.06 112.61 1.06L112.61 1.06Q110.91 1.06 109.41 2.51Q107.92 3.96 106.95 6.49L106.95 6.49L98.44 29.21Q98.39 29.39 97.96 29.39Q97.52 29.39 97.43 29.21L97.43 29.21L85.70 4.32Q84.96 2.81 84.27 1.93Q83.58 1.06 82.75 1.06L82.75 1.06Q82.62 1.06 82.62 0.78Q82.62 0.51 82.75 0.51L82.75 0.51Q83.21 0.51 83.49 0.55Q83.77 0.60 84.20 0.62Q84.64 0.64 85.61 0.64L85.61 0.64Q88.18 0.64 89.31 0.57Q90.44 0.51 91.17 0.51L91.17 0.51Q91.31 0.51 91.31 0.78Q91.31 1.06 91.17 1.06L91.17 1.06Q89.93 1.06 89.95 1.82Q89.98 2.58 91.17 5.15L91.17 5.15L99.96 23.60L97.98 26.77L105.43 6.81Q106.35 4.32 105.73 2.69Q105.11 1.06 103.36 1.06L103.36 1.06Q103.22 1.06 103.22 0.78Q103.22 0.51 103.36 0.51L103.36 0.51Q104.56 0.51 105.69 0.57Q106.81 0.64 108.51 0.64L108.51 0.64Q109.80 0.64 110.63 0.57Q111.46 0.51 112.61 0.51ZM92.83 14.03L91.95 12.74L94.35 6.35Q95.40 3.63 95.38 2.35Q95.36 1.06 94.21 1.06L94.21 1.06Q94.07 1.06 94.07 0.78Q94.07 0.51 94.21 0.51L94.21 0.51Q94.67 0.51 94.81 0.55Q94.94 0.60 95.38 0.62Q95.82 0.64 97.20 0.64L97.20 0.64Q98.35 0.64 99.06 0.57Q99.77 0.51 100.79 0.51L100.79 0.51Q100.88 0.51 100.88 0.78Q100.88 1.06 100.79 1.06L100.79 1.06Q99.22 1.06 97.98 2.39Q96.74 3.73 95.68 6.49L95.68 6.49L92.83 14.03ZM120.34 5.15L120.34 5.15Q120.34 6.90 121.23 8.21Q122.13 9.52 123.58 10.58Q125.03 11.64 126.64 12.70L126.64 12.70Q128.39 13.80 129.97 15.02Q131.56 16.24 132.59 17.83Q133.63 19.41 133.63 21.62L133.63 21.62Q133.63 24.06 132.32 25.90Q131.01 27.74 128.78 28.77Q126.55 29.81 123.69 29.81L123.69 29.81Q122.31 29.81 120.82 29.53Q119.32 29.26 118.10 28.84Q116.89 28.43 116.33 27.97L116.33 27.97Q116.15 27.83 116.01 27.67Q115.87 27.51 115.87 27.09L115.87 27.09L115.74 19.78Q115.69 19.55 115.94 19.53Q116.20 19.50 116.24 19.69L116.24 19.69Q116.93 21.11 117.76 22.70Q118.59 24.29 119.62 25.62Q120.66 26.96 121.95 27.81Q123.23 28.66 124.89 28.66L124.89 28.66Q125.95 28.66 126.91 28.29Q127.88 27.92 128.50 26.96Q129.12 25.99 129.12 24.29L129.12 24.29Q129.12 22.13 128.16 20.59Q127.19 19.04 125.67 17.87Q124.15 16.70 122.50 15.64L122.50 15.64Q120.89 14.58 119.42 13.46Q117.94 12.33 117.02 10.88Q116.10 9.43 116.10 7.41L116.10 7.41Q116.10 4.83 117.55 3.20Q119.00 1.56 121.23 0.78Q123.46 0 125.76 0L125.76 0Q127.42 0 129.08 0.30Q130.73 0.60 131.70 1.01L131.70 1.01Q132.16 1.20 132.27 1.43Q132.39 1.66 132.39 1.93L132.39 1.93L132.39 8.69Q132.39 8.83 132.18 8.90Q131.97 8.97 131.88 8.83L131.88 8.83Q131.61 8.28 131.10 7.02Q130.59 5.75 129.77 4.37Q128.94 2.99 127.65 2.00Q126.36 1.01 124.52 1.01L124.52 1.01Q123.37 1.01 122.43 1.47Q121.49 1.93 120.91 2.83Q120.34 3.73 120.34 5.15Z"></path></g></svg><svg id="slogan" viewBox="0 0 210.4945526123047 20.15999984741211" width="210" height="20.112634343341497" x="0" y="101.89422068490305" data-v-8d8ae3dd="" style="fill: rgb(17, 255, 51);"><rect x="0" y="0" width="100%" height="100%" fill="none" data-v-8d8ae3dd=""></rect><g data-v-8d8ae3dd=""><path xmlns="http://www.w3.org/2000/svg" d="M5.36 7.82L5.36 7.82L5.58 7.46Q6.96 7.46 7.97 7.90Q8.98 8.34 9.54 9.11Q10.10 9.88 10.10 10.90L10.10 10.90Q10.10 11.94 9.50 12.78Q8.90 13.62 7.85 14.11Q6.80 14.60 5.48 14.60L5.48 14.60Q4.94 14.60 4.11 14.54Q3.28 14.48 2.60 14.48L2.60 14.48Q1.88 14.48 1.23 14.50Q0.58 14.52 0.06 14.52L0.06 14.52Q0 14.52 0 14.40Q0 14.28 0.06 14.28L0.06 14.28Q0.62 14.28 0.93 14.18Q1.24 14.08 1.37 13.78Q1.50 13.48 1.50 12.90L1.50 12.90L1.50 3.64Q1.50 3.06 1.38 2.77Q1.26 2.48 0.95 2.37Q0.64 2.26 0.08 2.26L0.08 2.26Q0.04 2.26 0.04 2.14Q0.04 2.02 0.08 2.02L0.08 2.02Q0.60 2.02 1.24 2.05Q1.88 2.08 2.60 2.08L2.60 2.08Q3.18 2.08 3.80 2.02Q4.42 1.96 5.06 1.96L5.06 1.96Q6.26 1.96 7.11 2.25Q7.96 2.54 8.42 3.11Q8.88 3.68 8.88 4.54L8.88 4.54Q8.88 5.64 8 6.55Q7.12 7.46 5.36 7.82ZM4.76 2.40L4.76 2.40Q4.38 2.40 4.15 2.52Q3.92 2.64 3.83 2.91Q3.74 3.18 3.74 3.68L3.74 3.68L3.74 7.60L3 7.46Q3.66 7.48 4.08 7.49Q4.50 7.50 4.54 7.50L4.54 7.50Q5.62 7.50 6.16 6.69Q6.70 5.88 6.70 4.72L6.70 4.72Q6.70 3.96 6.47 3.44Q6.24 2.92 5.81 2.66Q5.38 2.40 4.76 2.40ZM5.14 14.10L5.14 14.10Q6.52 14.10 7.14 13.39Q7.76 12.68 7.76 11.38L7.76 11.38Q7.76 9.90 7.05 8.97Q6.34 8.04 4.78 8.04L4.78 8.04Q4.58 8.04 4.10 8.05Q3.62 8.06 3.08 8.16L3.08 8.16L3.74 7.92L3.74 12.90Q3.74 13.30 3.83 13.57Q3.92 13.84 4.22 13.97Q4.52 14.10 5.14 14.10ZM3 7.46L3 7.46ZM14.36 9.10L14.36 9.10L14.20 8.84Q14.98 7.94 15.52 7.46Q16.06 6.98 16.44 6.79Q16.82 6.60 17.12 6.60L17.12 6.60Q17.54 6.60 17.99 6.91Q18.44 7.22 18.44 7.72L18.44 7.72Q18.44 8.14 18.19 8.41Q17.94 8.68 17.50 8.68L17.50 8.68Q17.08 8.68 16.87 8.46Q16.66 8.24 16.49 8.03Q16.32 7.82 16 7.82L16 7.82Q15.86 7.82 15.69 7.91Q15.52 8.00 15.21 8.27Q14.90 8.54 14.36 9.10ZM11.92 14.52L11.92 14.52Q11.86 14.52 11.86 14.40Q11.86 14.28 11.92 14.28L11.92 14.28Q12.54 14.28 12.76 13.99Q12.98 13.70 12.98 12.90L12.98 12.90L12.98 9.14Q12.98 8.52 12.84 8.23Q12.70 7.94 12.36 7.94L12.36 7.94Q12.18 7.94 11.94 8.01Q11.70 8.08 11.40 8.22L11.40 8.22Q11.32 8.26 11.28 8.14Q11.24 8.02 11.28 8.00L11.28 8.00L14.06 6.64Q14.18 6.60 14.20 6.60L14.20 6.60Q14.42 6.60 14.64 7.08Q14.86 7.56 14.86 8.46L14.86 8.46L14.86 12.90Q14.86 13.42 15.02 13.73Q15.18 14.04 15.57 14.16Q15.96 14.28 16.64 14.28L16.64 14.28Q16.72 14.28 16.72 14.40Q16.72 14.52 16.64 14.52L16.64 14.52Q16.10 14.52 15.41 14.50Q14.72 14.48 13.92 14.48L13.92 14.48Q13.36 14.48 12.84 14.50Q12.32 14.52 11.92 14.52ZM19.50 14.52L19.50 14.52Q19.44 14.52 19.44 14.40Q19.44 14.28 19.50 14.28L19.50 14.28Q20.12 14.28 20.34 13.99Q20.56 13.70 20.56 12.90L20.56 12.90L20.56 9.32Q20.56 8.66 20.43 8.35Q20.30 8.04 19.96 8.04L19.96 8.04Q19.82 8.04 19.63 8.10Q19.44 8.16 19.22 8.26L19.22 8.26Q19.14 8.28 19.09 8.16Q19.04 8.04 19.10 8.02L19.10 8.02L22.12 6.62Q22.16 6.60 22.18 6.60L22.18 6.60Q22.28 6.60 22.38 6.70Q22.48 6.80 22.48 6.88L22.48 6.88Q22.48 7.12 22.46 7.68Q22.44 8.24 22.44 9.28L22.44 9.28L22.44 12.90Q22.44 13.70 22.67 13.99Q22.90 14.28 23.52 14.28L23.52 14.28Q23.58 14.28 23.58 14.40Q23.58 14.52 23.52 14.52L23.52 14.52Q23.12 14.52 22.60 14.50Q22.08 14.48 21.50 14.48L21.50 14.48Q20.94 14.48 20.42 14.50Q19.90 14.52 19.50 14.52ZM21.42 4.62L21.42 4.62Q20.86 4.62 20.53 4.30Q20.20 3.98 20.20 3.40L20.20 3.40Q20.20 2.88 20.53 2.57Q20.86 2.26 21.42 2.26L21.42 2.26Q21.98 2.26 22.28 2.57Q22.58 2.88 22.58 3.40L22.58 3.40Q22.58 4.62 21.42 4.62ZM30.14 14.52L30.14 14.52Q30.08 14.52 30.08 14.40Q30.08 14.28 30.14 14.28L30.14 14.28Q30.76 14.28 30.98 13.99Q31.20 13.70 31.20 12.90L31.20 12.90L31.20 10.02Q31.20 8.94 30.81 8.42Q30.42 7.90 29.58 7.90L29.58 7.90Q28.98 7.90 28.35 8.20Q27.72 8.50 27.34 9.02L27.34 9.02L27.24 8.78Q27.94 7.78 28.82 7.17Q29.70 6.56 30.74 6.56L30.74 6.56Q31.86 6.56 32.47 7.26Q33.08 7.96 33.08 9.06L33.08 9.06L33.08 12.90Q33.08 13.70 33.31 13.99Q33.54 14.28 34.16 14.28L34.16 14.28Q34.22 14.28 34.22 14.40Q34.22 14.52 34.16 14.52L34.16 14.52Q33.76 14.52 33.24 14.50Q32.72 14.48 32.14 14.48L32.14 14.48Q31.58 14.48 31.06 14.50Q30.54 14.52 30.14 14.52ZM24.76 14.52L24.76 14.52Q24.70 14.52 24.70 14.40Q24.70 14.28 24.76 14.28L24.76 14.28Q25.38 14.28 25.60 13.99Q25.82 13.70 25.82 12.90L25.82 12.90L25.82 9.14Q25.82 8.52 25.68 8.23Q25.54 7.94 25.20 7.94L25.20 7.94Q25.02 7.94 24.78 8.01Q24.54 8.08 24.24 8.22L24.24 8.22Q24.16 8.26 24.12 8.14Q24.08 8.02 24.12 8.00L24.12 8.00L26.90 6.64Q27.02 6.60 27.04 6.60L27.04 6.60Q27.26 6.60 27.48 7.08Q27.70 7.56 27.70 8.46L27.70 8.46L27.70 12.90Q27.70 13.70 27.93 13.99Q28.16 14.28 28.78 14.28L28.78 14.28Q28.84 14.28 28.84 14.40Q28.84 14.52 28.78 14.52L28.78 14.52Q28.38 14.52 27.86 14.50Q27.34 14.48 26.76 14.48L26.76 14.48Q26.20 14.48 25.68 14.50Q25.16 14.52 24.76 14.52ZM38.14 20.16L38.14 20.16Q36.68 20.16 35.73 19.53Q34.78 18.90 34.78 17.86L34.78 17.86Q34.78 17.44 34.97 16.95Q35.16 16.46 35.71 15.86Q36.26 15.26 37.34 14.56L37.34 14.56L37.54 14.78Q37.34 14.98 37.16 15.25Q36.98 15.52 36.87 15.91Q36.76 16.30 36.76 16.90L36.76 16.90Q36.76 18.20 37.46 18.86Q38.16 19.52 39.20 19.52L39.20 19.52Q39.90 19.52 40.42 19.25Q40.94 18.98 41.24 18.47Q41.54 17.96 41.54 17.28L41.54 17.28Q41.54 16.68 41.27 16.31Q41 15.94 40.55 15.73Q40.10 15.52 39.54 15.40Q38.98 15.28 38.40 15.20L38.40 15.20Q37.70 15.08 37.05 14.93Q36.40 14.78 36 14.44Q35.60 14.10 35.60 13.44L35.60 13.44Q35.60 12.92 36.07 12.30Q36.54 11.68 37.66 11.18L37.66 11.18L37.84 11.30Q37.46 11.50 37.29 11.74Q37.12 11.98 37.12 12.32L37.12 12.32Q37.12 12.78 37.47 13.03Q37.82 13.28 38.40 13.40Q38.98 13.52 39.62 13.64L39.62 13.64Q40.26 13.74 40.89 13.88Q41.52 14.02 42.05 14.26Q42.58 14.50 42.90 14.94Q43.22 15.38 43.22 16.08L43.22 16.08Q43.22 16.90 42.82 17.63Q42.42 18.36 41.72 18.93Q41.02 19.50 40.10 19.83Q39.18 20.16 38.14 20.16ZM38.54 11.62L38.54 11.62Q37.52 11.62 36.81 11.26Q36.10 10.90 35.73 10.33Q35.36 9.76 35.36 9.16L35.36 9.16Q35.36 8.32 35.91 7.76Q36.46 7.20 37.26 6.93Q38.06 6.66 38.80 6.66L38.80 6.66Q39.74 6.66 40.46 6.99Q41.18 7.32 41.59 7.87Q42 8.42 42 9.12L42 9.12Q42 9.90 41.47 10.46Q40.94 11.02 40.15 11.32Q39.36 11.62 38.54 11.62ZM39.08 11.26L39.08 11.26Q39.42 11.26 39.73 10.89Q40.04 10.52 40.04 9.60L40.04 9.60Q40.04 8.50 39.47 7.77Q38.90 7.04 38.14 7.04L38.14 7.04Q37.70 7.04 37.50 7.45Q37.30 7.86 37.30 8.62L37.30 8.62Q37.30 9.28 37.52 9.88Q37.74 10.48 38.14 10.87Q38.54 11.26 39.08 11.26ZM40.68 7.88L40.56 8.26L40.60 7.62Q41.24 7.12 41.85 6.86Q42.46 6.60 43.20 6.60L43.20 6.60Q43.30 6.60 43.33 6.76Q43.36 6.92 43.36 7.16L43.36 7.16Q43.36 7.44 43.28 7.78Q43.20 8.12 43.14 8.06L43.14 8.06Q42.76 7.90 42.38 7.81Q42 7.72 41.64 7.72L41.64 7.72Q41.42 7.72 41.18 7.75Q40.94 7.78 40.68 7.88L40.68 7.88ZM44.30 14.52L44.30 14.52Q44.24 14.52 44.24 14.40Q44.24 14.28 44.30 14.28L44.30 14.28Q44.92 14.28 45.14 13.99Q45.36 13.70 45.36 12.90L45.36 12.90L45.36 9.32Q45.36 8.66 45.23 8.35Q45.10 8.04 44.76 8.04L44.76 8.04Q44.62 8.04 44.43 8.10Q44.24 8.16 44.02 8.26L44.02 8.26Q43.94 8.28 43.89 8.16Q43.84 8.04 43.90 8.02L43.90 8.02L46.92 6.62Q46.96 6.60 46.98 6.60L46.98 6.60Q47.08 6.60 47.18 6.70Q47.28 6.80 47.28 6.88L47.28 6.88Q47.28 7.12 47.26 7.68Q47.24 8.24 47.24 9.28L47.24 9.28L47.24 12.90Q47.24 13.70 47.47 13.99Q47.70 14.28 48.32 14.28L48.32 14.28Q48.38 14.28 48.38 14.40Q48.38 14.52 48.32 14.52L48.32 14.52Q47.92 14.52 47.40 14.50Q46.88 14.48 46.30 14.48L46.30 14.48Q45.74 14.48 45.22 14.50Q44.70 14.52 44.30 14.52ZM46.22 4.62L46.22 4.62Q45.66 4.62 45.33 4.30Q45.00 3.98 45.00 3.40L45.00 3.40Q45.00 2.88 45.33 2.57Q45.66 2.26 46.22 2.26L46.22 2.26Q46.78 2.26 47.08 2.57Q47.38 2.88 47.38 3.40L47.38 3.40Q47.38 4.62 46.22 4.62ZM54.94 14.52L54.94 14.52Q54.88 14.52 54.88 14.40Q54.88 14.28 54.94 14.28L54.94 14.28Q55.56 14.28 55.78 13.99Q56.00 13.70 56.00 12.90L56.00 12.90L56.00 10.02Q56.00 8.94 55.61 8.42Q55.22 7.90 54.38 7.90L54.38 7.90Q53.78 7.90 53.15 8.20Q52.52 8.50 52.14 9.02L52.14 9.02L52.04 8.78Q52.74 7.78 53.62 7.17Q54.50 6.56 55.54 6.56L55.54 6.56Q56.66 6.56 57.27 7.26Q57.88 7.96 57.88 9.06L57.88 9.06L57.88 12.90Q57.88 13.70 58.11 13.99Q58.34 14.28 58.96 14.28L58.96 14.28Q59.02 14.28 59.02 14.40Q59.02 14.52 58.96 14.52L58.96 14.52Q58.56 14.52 58.04 14.50Q57.52 14.48 56.94 14.48L56.94 14.48Q56.38 14.48 55.86 14.50Q55.34 14.52 54.94 14.52ZM49.56 14.52L49.56 14.52Q49.50 14.52 49.50 14.40Q49.50 14.28 49.56 14.28L49.56 14.28Q50.18 14.28 50.40 13.99Q50.62 13.70 50.62 12.90L50.62 12.90L50.62 9.14Q50.62 8.52 50.48 8.23Q50.34 7.94 50.00 7.94L50.00 7.94Q49.82 7.94 49.58 8.01Q49.34 8.08 49.04 8.22L49.04 8.22Q48.96 8.26 48.92 8.14Q48.88 8.02 48.92 8.00L48.92 8.00L51.70 6.64Q51.82 6.60 51.84 6.60L51.84 6.60Q52.06 6.60 52.28 7.08Q52.50 7.56 52.50 8.46L52.50 8.46L52.50 12.90Q52.50 13.70 52.73 13.99Q52.96 14.28 53.58 14.28L53.58 14.28Q53.64 14.28 53.64 14.40Q53.64 14.52 53.58 14.52L53.58 14.52Q53.18 14.52 52.66 14.50Q52.14 14.48 51.56 14.48L51.56 14.48Q51.00 14.48 50.48 14.50Q49.96 14.52 49.56 14.52ZM62.94 20.16L62.94 20.16Q61.48 20.16 60.53 19.53Q59.58 18.90 59.58 17.86L59.58 17.86Q59.58 17.44 59.77 16.95Q59.96 16.46 60.51 15.86Q61.06 15.26 62.14 14.56L62.14 14.56L62.34 14.78Q62.14 14.98 61.96 15.25Q61.78 15.52 61.67 15.91Q61.56 16.30 61.56 16.90L61.56 16.90Q61.56 18.20 62.26 18.86Q62.96 19.52 64 19.52L64 19.52Q64.70 19.52 65.22 19.25Q65.74 18.98 66.04 18.47Q66.34 17.96 66.34 17.28L66.34 17.28Q66.34 16.68 66.07 16.31Q65.80 15.94 65.35 15.73Q64.90 15.52 64.34 15.40Q63.78 15.28 63.20 15.20L63.20 15.20Q62.50 15.08 61.85 14.93Q61.20 14.78 60.80 14.44Q60.40 14.10 60.40 13.44L60.40 13.44Q60.40 12.92 60.87 12.30Q61.34 11.68 62.46 11.18L62.46 11.18L62.64 11.30Q62.26 11.50 62.09 11.74Q61.92 11.98 61.92 12.32L61.92 12.32Q61.92 12.78 62.27 13.03Q62.62 13.28 63.20 13.40Q63.78 13.52 64.42 13.64L64.42 13.64Q65.06 13.74 65.69 13.88Q66.32 14.02 66.85 14.26Q67.38 14.50 67.70 14.94Q68.02 15.38 68.02 16.08L68.02 16.08Q68.02 16.90 67.62 17.63Q67.22 18.36 66.52 18.93Q65.82 19.50 64.90 19.83Q63.98 20.16 62.94 20.16ZM63.34 11.62L63.34 11.62Q62.32 11.62 61.61 11.26Q60.90 10.90 60.53 10.33Q60.16 9.76 60.16 9.16L60.16 9.16Q60.16 8.32 60.71 7.76Q61.26 7.20 62.06 6.93Q62.86 6.66 63.60 6.66L63.60 6.66Q64.54 6.66 65.26 6.99Q65.98 7.32 66.39 7.87Q66.80 8.42 66.80 9.12L66.80 9.12Q66.80 9.90 66.27 10.46Q65.74 11.02 64.95 11.32Q64.16 11.62 63.34 11.62ZM63.88 11.26L63.88 11.26Q64.22 11.26 64.53 10.89Q64.84 10.52 64.84 9.60L64.84 9.60Q64.84 8.50 64.27 7.77Q63.70 7.04 62.94 7.04L62.94 7.04Q62.50 7.04 62.30 7.45Q62.10 7.86 62.10 8.62L62.10 8.62Q62.10 9.28 62.32 9.88Q62.54 10.48 62.94 10.87Q63.34 11.26 63.88 11.26ZM65.48 7.88L65.36 8.26L65.40 7.62Q66.04 7.12 66.65 6.86Q67.26 6.60 68 6.60L68 6.60Q68.10 6.60 68.13 6.76Q68.16 6.92 68.16 7.16L68.16 7.16Q68.16 7.44 68.08 7.78Q68 8.12 67.94 8.06L67.94 8.06Q67.56 7.90 67.18 7.81Q66.80 7.72 66.44 7.72L66.44 7.72Q66.22 7.72 65.98 7.75Q65.74 7.78 65.48 7.88L65.48 7.88ZM81.82 6.80L81.82 6.80Q81.86 6.80 81.86 6.92Q81.86 7.04 81.82 7.04L81.82 7.04Q81.14 7.04 80.68 7.62Q80.22 8.20 79.86 9.18L79.86 9.18L77.64 15.08Q76.92 17 76.25 18.11Q75.58 19.22 74.90 19.68Q74.22 20.14 73.46 20.14L73.46 20.14Q72.88 20.14 72.55 19.89Q72.22 19.64 72.22 19.16L72.22 19.16Q72.22 18.68 72.51 18.45Q72.80 18.22 73.18 18.22L73.18 18.22Q73.52 18.22 73.72 18.35Q73.92 18.48 74.12 18.61Q74.32 18.74 74.64 18.74L74.64 18.74Q75.12 18.74 75.52 18.33Q75.92 17.92 76.38 16.93Q76.84 15.94 77.46 14.22L77.46 14.22L77.40 15.32L74 8.46Q73.56 7.58 73.31 7.31Q73.06 7.04 72.70 7.04L72.70 7.04Q72.64 7.04 72.64 6.92Q72.64 6.80 72.70 6.80L72.70 6.80Q73.10 6.80 73.55 6.82Q74 6.84 74.40 6.84L74.40 6.84Q75.12 6.84 75.66 6.82Q76.20 6.80 76.64 6.80L76.64 6.80Q76.70 6.80 76.70 6.92Q76.70 7.04 76.64 7.04L76.64 7.04Q75.94 7.04 75.74 7.20Q75.54 7.36 75.76 7.82L75.76 7.82L78.30 13.02L77.58 14.20L79.32 9.16Q79.66 8.18 79.37 7.61Q79.08 7.04 78.26 7.04L78.26 7.04Q78.22 7.04 78.22 6.92Q78.22 6.80 78.26 6.80L78.26 6.80Q78.74 6.80 79.17 6.82Q79.60 6.84 80.28 6.84L80.28 6.84Q80.76 6.84 81.07 6.82Q81.38 6.80 81.82 6.80ZM86.28 14.78L86.28 14.78Q85.02 14.78 84.10 14.20Q83.18 13.62 82.68 12.65Q82.18 11.68 82.18 10.56L82.18 10.56Q82.18 9.52 82.58 8.76Q82.98 8.00 83.64 7.51Q84.30 7.02 85.08 6.78Q85.86 6.54 86.62 6.54L86.62 6.54Q87.90 6.54 88.81 7.14Q89.72 7.74 90.20 8.68Q90.68 9.62 90.68 10.68L90.68 10.68Q90.68 11.90 90.07 12.83Q89.46 13.76 88.46 14.27Q87.46 14.78 86.28 14.78ZM86.88 14.36L86.88 14.36Q87.68 14.36 88.08 13.58Q88.48 12.80 88.48 11.38L88.48 11.38Q88.48 9.92 88.11 8.94Q87.74 7.96 87.16 7.46Q86.58 6.96 85.94 6.96L85.94 6.96Q85.16 6.96 84.75 7.66Q84.34 8.36 84.34 9.82L84.34 9.82Q84.34 11.18 84.68 12.21Q85.02 13.24 85.60 13.80Q86.18 14.36 86.88 14.36ZM95.16 14.76L95.16 14.76Q94.06 14.76 93.43 14.06Q92.80 13.36 92.80 12.26L92.80 12.26L92.80 9.32Q92.80 8.66 92.65 8.34Q92.50 8.02 92.18 8.02L92.18 8.02Q91.96 8.02 91.68 8.16L91.68 8.16Q91.60 8.18 91.55 8.06Q91.50 7.94 91.56 7.92L91.56 7.92L94.24 6.64Q94.30 6.62 94.34 6.62L94.34 6.62Q94.44 6.62 94.55 6.71Q94.66 6.80 94.66 6.88L94.66 6.88L94.66 11.30Q94.66 12.38 95.07 12.92Q95.48 13.46 96.32 13.46L96.32 13.46Q96.90 13.46 97.48 13.13Q98.06 12.80 98.40 12.30L98.40 12.30L98.52 12.54Q97.84 13.52 97 14.14Q96.16 14.76 95.16 14.76ZM99.88 6.88L99.88 6.88L99.88 12.20Q99.88 12.88 100.01 13.16Q100.14 13.44 100.44 13.44L100.44 13.44Q100.58 13.44 100.79 13.38Q101 13.32 101.26 13.22L101.26 13.22Q101.34 13.18 101.40 13.29Q101.46 13.40 101.40 13.44L101.40 13.44L98.64 14.78Q98.60 14.80 98.54 14.80L98.54 14.80Q98.34 14.80 98.18 14.30Q98.02 13.80 98.02 12.88L98.02 12.88L98.02 9.32Q98.02 8.66 97.87 8.34Q97.72 8.02 97.40 8.02L97.40 8.02Q97.18 8.02 96.88 8.16L96.88 8.16Q96.82 8.18 96.77 8.06Q96.72 7.94 96.78 7.92L96.78 7.92L99.46 6.64Q99.50 6.62 99.56 6.62L99.56 6.62Q99.66 6.62 99.77 6.71Q99.88 6.80 99.88 6.88ZM104.64 9.10L104.64 9.10L104.48 8.84Q105.26 7.94 105.80 7.46Q106.34 6.98 106.72 6.79Q107.10 6.60 107.40 6.60L107.40 6.60Q107.82 6.60 108.27 6.91Q108.72 7.22 108.72 7.72L108.72 7.72Q108.72 8.14 108.47 8.41Q108.22 8.68 107.78 8.68L107.78 8.68Q107.36 8.68 107.15 8.46Q106.94 8.24 106.77 8.03Q106.60 7.82 106.28 7.82L106.28 7.82Q106.14 7.82 105.97 7.91Q105.80 8.00 105.49 8.27Q105.18 8.54 104.64 9.10ZM102.20 14.52L102.20 14.52Q102.14 14.52 102.14 14.40Q102.14 14.28 102.20 14.28L102.20 14.28Q102.82 14.28 103.04 13.99Q103.26 13.70 103.26 12.90L103.26 12.90L103.26 9.14Q103.26 8.52 103.12 8.23Q102.98 7.94 102.64 7.94L102.64 7.94Q102.46 7.94 102.22 8.01Q101.98 8.08 101.68 8.22L101.68 8.22Q101.60 8.26 101.56 8.14Q101.52 8.02 101.56 8.00L101.56 8.00L104.34 6.64Q104.46 6.60 104.48 6.60L104.48 6.60Q104.70 6.60 104.92 7.08Q105.14 7.56 105.14 8.46L105.14 8.46L105.14 12.90Q105.14 13.42 105.30 13.73Q105.46 14.04 105.85 14.16Q106.24 14.28 106.92 14.28L106.92 14.28Q107 14.28 107 14.40Q107 14.52 106.92 14.52L106.92 14.52Q106.38 14.52 105.69 14.50Q105 14.48 104.20 14.48L104.20 14.48Q103.64 14.48 103.12 14.50Q102.60 14.52 102.20 14.52ZM122.76 6.80L122.76 6.80Q122.80 6.80 122.80 6.92Q122.80 7.04 122.76 7.04L122.76 7.04Q122.18 7.04 121.73 7.48Q121.28 7.92 120.88 8.84L120.88 8.84L118.42 14.52Q118.38 14.62 118.21 14.62Q118.04 14.62 117.98 14.52L117.98 14.52L114.92 8.46Q114.48 7.54 114.16 7.29Q113.84 7.04 113.40 7.04L113.40 7.04Q113.34 7.04 113.34 6.92Q113.34 6.80 113.40 6.80L113.40 6.80Q113.74 6.80 114.17 6.82Q114.60 6.84 115.34 6.84L115.34 6.84Q116.16 6.84 116.74 6.82Q117.32 6.80 117.82 6.80L117.82 6.80Q117.88 6.80 117.88 6.92Q117.88 7.04 117.82 7.04L117.82 7.04Q117.20 7.04 116.86 7.20Q116.52 7.36 116.76 7.82L116.76 7.82L119.16 12.34L118.14 14.10L120.32 8.82Q120.66 8.00 120.33 7.52Q120 7.04 119.20 7.04L119.20 7.04Q119.16 7.04 119.16 6.92Q119.16 6.80 119.20 6.80L119.20 6.80Q119.68 6.80 120.11 6.82Q120.54 6.84 121.22 6.84L121.22 6.84Q121.70 6.84 122.01 6.82Q122.32 6.80 122.76 6.80ZM123.26 14.52L123.26 14.52Q123.20 14.52 123.20 14.40Q123.20 14.28 123.26 14.28L123.26 14.28Q123.88 14.28 124.10 13.99Q124.32 13.70 124.32 12.90L124.32 12.90L124.32 9.32Q124.32 8.66 124.19 8.35Q124.06 8.04 123.72 8.04L123.72 8.04Q123.58 8.04 123.39 8.10Q123.20 8.16 122.98 8.26L122.98 8.26Q122.90 8.28 122.85 8.16Q122.80 8.04 122.86 8.02L122.86 8.02L125.88 6.62Q125.92 6.60 125.94 6.60L125.94 6.60Q126.04 6.60 126.14 6.70Q126.24 6.80 126.24 6.88L126.24 6.88Q126.24 7.12 126.22 7.68Q126.20 8.24 126.20 9.28L126.20 9.28L126.20 12.90Q126.20 13.70 126.43 13.99Q126.66 14.28 127.28 14.28L127.28 14.28Q127.34 14.28 127.34 14.40Q127.34 14.52 127.28 14.52L127.28 14.52Q126.88 14.52 126.36 14.50Q125.84 14.48 125.26 14.48L125.26 14.48Q124.70 14.48 124.18 14.50Q123.66 14.52 123.26 14.52ZM125.18 4.62L125.18 4.62Q124.62 4.62 124.29 4.30Q123.96 3.98 123.96 3.40L123.96 3.40Q123.96 2.88 124.29 2.57Q124.62 2.26 125.18 2.26L125.18 2.26Q125.74 2.26 126.04 2.57Q126.34 2.88 126.34 3.40L126.34 3.40Q126.34 4.62 125.18 4.62ZM130.10 7.76L130.10 7.76Q130.10 8.18 130.33 8.51Q130.56 8.84 130.92 9.11Q131.28 9.38 131.70 9.64L131.70 9.64Q132.20 9.92 132.68 10.23Q133.16 10.54 133.48 10.98Q133.80 11.42 133.80 12.12L133.80 12.12Q133.80 12.76 133.47 13.37Q133.14 13.98 132.48 14.36Q131.82 14.74 130.82 14.74L130.82 14.74Q130.32 14.74 129.82 14.63Q129.32 14.52 128.74 14.20L128.74 14.20Q128.70 14.16 128.66 14.10Q128.62 14.04 128.62 13.96L128.62 13.96L128.58 11.98Q128.58 11.92 128.69 11.91Q128.80 11.90 128.82 11.94L128.82 11.94Q129.04 12.58 129.44 13.13Q129.84 13.68 130.35 14.01Q130.86 14.34 131.38 14.34L131.38 14.34Q131.78 14.34 132.04 14.09Q132.30 13.84 132.30 13.32L132.30 13.32Q132.30 12.76 132.05 12.39Q131.80 12.02 131.42 11.75Q131.04 11.48 130.64 11.26L130.64 11.26Q130.18 11 129.72 10.72Q129.26 10.44 128.96 10.01Q128.66 9.58 128.66 8.88L128.66 8.88Q128.66 8.04 129.08 7.54Q129.50 7.04 130.17 6.82Q130.84 6.60 131.56 6.60L131.56 6.60Q132 6.60 132.37 6.66Q132.74 6.72 133.22 6.90L133.22 6.90Q133.40 6.96 133.40 7.12L133.40 7.12Q133.40 7.52 133.38 7.95Q133.36 8.38 133.36 8.90L133.36 8.90Q133.36 8.96 133.24 8.96Q133.12 8.96 133.12 8.90L133.12 8.90Q133.12 8.52 132.81 8.08Q132.50 7.64 132 7.31Q131.50 6.98 130.92 6.98L130.92 6.98Q130.64 6.98 130.37 7.12Q130.10 7.26 130.10 7.76ZM135.26 14.52L135.26 14.52Q135.20 14.52 135.20 14.40Q135.20 14.28 135.26 14.28L135.26 14.28Q135.88 14.28 136.10 13.99Q136.32 13.70 136.32 12.90L136.32 12.90L136.32 9.32Q136.32 8.66 136.19 8.35Q136.06 8.04 135.72 8.04L135.72 8.04Q135.58 8.04 135.39 8.10Q135.20 8.16 134.98 8.26L134.98 8.26Q134.90 8.28 134.85 8.16Q134.80 8.04 134.86 8.02L134.86 8.02L137.88 6.62Q137.92 6.60 137.94 6.60L137.94 6.60Q138.04 6.60 138.14 6.70Q138.24 6.80 138.24 6.88L138.24 6.88Q138.24 7.12 138.22 7.68Q138.20 8.24 138.20 9.28L138.20 9.28L138.20 12.90Q138.20 13.70 138.43 13.99Q138.66 14.28 139.28 14.28L139.28 14.28Q139.34 14.28 139.34 14.40Q139.34 14.52 139.28 14.52L139.28 14.52Q138.88 14.52 138.36 14.50Q137.84 14.48 137.26 14.48L137.26 14.48Q136.70 14.48 136.18 14.50Q135.66 14.52 135.26 14.52ZM137.18 4.62L137.18 4.62Q136.62 4.62 136.29 4.30Q135.96 3.98 135.96 3.40L135.96 3.40Q135.96 2.88 136.29 2.57Q136.62 2.26 137.18 2.26L137.18 2.26Q137.74 2.26 138.04 2.57Q138.34 2.88 138.34 3.40L138.34 3.40Q138.34 4.62 137.18 4.62ZM144.48 14.78L144.48 14.78Q143.22 14.78 142.30 14.20Q141.38 13.62 140.88 12.65Q140.38 11.68 140.38 10.56L140.38 10.56Q140.38 9.52 140.78 8.76Q141.18 8.00 141.84 7.51Q142.50 7.02 143.28 6.78Q144.06 6.54 144.82 6.54L144.82 6.54Q146.10 6.54 147.01 7.14Q147.92 7.74 148.40 8.68Q148.88 9.62 148.88 10.68L148.88 10.68Q148.88 11.90 148.27 12.83Q147.66 13.76 146.66 14.27Q145.66 14.78 144.48 14.78ZM145.08 14.36L145.08 14.36Q145.88 14.36 146.28 13.58Q146.68 12.80 146.68 11.38L146.68 11.38Q146.68 9.92 146.31 8.94Q145.94 7.96 145.36 7.46Q144.78 6.96 144.14 6.96L144.14 6.96Q143.36 6.96 142.95 7.66Q142.54 8.36 142.54 9.82L142.54 9.82Q142.54 11.18 142.88 12.21Q143.22 13.24 143.80 13.80Q144.38 14.36 145.08 14.36ZM155.68 14.52L155.68 14.52Q155.62 14.52 155.62 14.40Q155.62 14.28 155.68 14.28L155.68 14.28Q156.30 14.28 156.52 13.99Q156.74 13.70 156.74 12.90L156.74 12.90L156.74 10.02Q156.74 8.94 156.35 8.42Q155.96 7.90 155.12 7.90L155.12 7.90Q154.52 7.90 153.89 8.20Q153.26 8.50 152.88 9.02L152.88 9.02L152.78 8.78Q153.48 7.78 154.36 7.17Q155.24 6.56 156.28 6.56L156.28 6.56Q157.40 6.56 158.01 7.26Q158.62 7.96 158.62 9.06L158.62 9.06L158.62 12.90Q158.62 13.70 158.85 13.99Q159.08 14.28 159.70 14.28L159.70 14.28Q159.76 14.28 159.76 14.40Q159.76 14.52 159.70 14.52L159.70 14.52Q159.30 14.52 158.78 14.50Q158.26 14.48 157.68 14.48L157.68 14.48Q157.12 14.48 156.60 14.50Q156.08 14.52 155.68 14.52ZM150.30 14.52L150.30 14.52Q150.24 14.52 150.24 14.40Q150.24 14.28 150.30 14.28L150.30 14.28Q150.92 14.28 151.14 13.99Q151.36 13.70 151.36 12.90L151.36 12.90L151.36 9.14Q151.36 8.52 151.22 8.23Q151.08 7.94 150.74 7.94L150.74 7.94Q150.56 7.94 150.32 8.01Q150.08 8.08 149.78 8.22L149.78 8.22Q149.70 8.26 149.66 8.14Q149.62 8.02 149.66 8.00L149.66 8.00L152.44 6.64Q152.56 6.60 152.58 6.60L152.58 6.60Q152.80 6.60 153.02 7.08Q153.24 7.56 153.24 8.46L153.24 8.46L153.24 12.90Q153.24 13.70 153.47 13.99Q153.70 14.28 154.32 14.28L154.32 14.28Q154.38 14.28 154.38 14.40Q154.38 14.52 154.32 14.52L154.32 14.52Q153.92 14.52 153.40 14.50Q152.88 14.48 152.30 14.48L152.30 14.48Q151.74 14.48 151.22 14.50Q150.70 14.52 150.30 14.52ZM168.40 14.76L168.40 14.76Q167.92 14.76 167.43 14.60Q166.94 14.44 166.61 14.04Q166.28 13.64 166.28 12.92L166.28 12.92L166.28 8.48Q166.28 8.06 166.18 7.82Q166.08 7.58 165.86 7.48Q165.64 7.38 165.26 7.38L165.26 7.38Q165.18 7.38 165.18 7.20Q165.18 7.02 165.26 7.02L165.26 7.02Q166.28 6.98 166.92 6.57Q167.56 6.16 167.88 5.36L167.88 5.36Q167.92 5.28 168.05 5.28Q168.18 5.28 168.18 5.36L168.18 5.36L168.18 12.26Q168.18 13.06 168.59 13.40Q169.00 13.74 169.60 13.74L169.60 13.74Q170.06 13.74 170.47 13.55Q170.88 13.36 171.16 13.14L171.16 13.14Q171.22 13.08 171.31 13.17Q171.40 13.26 171.32 13.32L171.32 13.32Q170.58 14.06 169.89 14.41Q169.20 14.76 168.40 14.76ZM170.70 7.82L170.70 7.82Q169.88 7.64 169.11 7.57Q168.34 7.50 167.48 7.50L167.48 7.50L167.48 6.98Q168.30 6.98 169.09 6.92Q169.88 6.86 170.78 6.78L170.78 6.78Q170.82 6.78 170.87 6.93Q170.92 7.08 170.92 7.26L170.92 7.26Q170.92 7.46 170.85 7.65Q170.78 7.84 170.70 7.82ZM176.18 14.78L176.18 14.78Q174.92 14.78 174.00 14.20Q173.08 13.62 172.58 12.65Q172.08 11.68 172.08 10.56L172.08 10.56Q172.08 9.52 172.48 8.76Q172.88 8.00 173.54 7.51Q174.20 7.02 174.98 6.78Q175.76 6.54 176.52 6.54L176.52 6.54Q177.80 6.54 178.71 7.14Q179.62 7.74 180.10 8.68Q180.58 9.62 180.58 10.68L180.58 10.68Q180.58 11.90 179.97 12.83Q179.36 13.76 178.36 14.27Q177.36 14.78 176.18 14.78ZM176.78 14.36L176.78 14.36Q177.58 14.36 177.98 13.58Q178.38 12.80 178.38 11.38L178.38 11.38Q178.38 9.92 178.01 8.94Q177.64 7.96 177.06 7.46Q176.48 6.96 175.84 6.96L175.84 6.96Q175.06 6.96 174.65 7.66Q174.24 8.36 174.24 9.82L174.24 9.82Q174.24 11.18 174.58 12.21Q174.92 13.24 175.50 13.80Q176.08 14.36 176.78 14.36ZM186.60 14.52L186.60 14.52Q186.56 14.52 186.56 14.40Q186.56 14.28 186.60 14.28L186.60 14.28Q187.22 14.28 187.45 13.99Q187.68 13.70 187.68 12.90L187.68 12.90L187.70 2.74Q187.70 2.06 187.58 1.75Q187.46 1.44 187.12 1.44L187.12 1.44Q186.86 1.44 186.36 1.66L186.36 1.66Q186.30 1.68 186.24 1.56Q186.18 1.44 186.22 1.42L186.22 1.42L189.16 0.04Q189.20 0.02 189.24 0.02L189.24 0.02Q189.34 0.02 189.46 0.11Q189.58 0.20 189.58 0.28L189.58 0.28L189.58 12.90Q189.58 13.70 189.80 13.99Q190.02 14.28 190.64 14.28L190.64 14.28Q190.72 14.28 190.72 14.40Q190.72 14.52 190.64 14.52L190.64 14.52Q190.26 14.52 189.73 14.50Q189.20 14.48 188.62 14.48L188.62 14.48Q188.04 14.48 187.52 14.50Q187.00 14.52 186.60 14.52ZM192.04 14.52L192.04 14.52Q191.98 14.52 191.98 14.40Q191.98 14.28 192.04 14.28L192.04 14.28Q192.66 14.28 192.88 13.99Q193.10 13.70 193.10 12.90L193.10 12.90L193.10 9.32Q193.10 8.66 192.97 8.35Q192.84 8.04 192.50 8.04L192.50 8.04Q192.36 8.04 192.17 8.10Q191.98 8.16 191.76 8.26L191.76 8.26Q191.68 8.28 191.63 8.16Q191.58 8.04 191.64 8.02L191.64 8.02L194.66 6.62Q194.70 6.60 194.72 6.60L194.72 6.60Q194.82 6.60 194.92 6.70Q195.02 6.80 195.02 6.88L195.02 6.88Q195.02 7.12 195.00 7.68Q194.98 8.24 194.98 9.28L194.98 9.28L194.98 12.90Q194.98 13.70 195.21 13.99Q195.44 14.28 196.06 14.28L196.06 14.28Q196.12 14.28 196.12 14.40Q196.12 14.52 196.06 14.52L196.06 14.52Q195.66 14.52 195.14 14.50Q194.62 14.48 194.04 14.48L194.04 14.48Q193.48 14.48 192.96 14.50Q192.44 14.52 192.04 14.52ZM193.96 4.62L193.96 4.62Q193.40 4.62 193.07 4.30Q192.74 3.98 192.74 3.40L192.74 3.40Q192.74 2.88 193.07 2.57Q193.40 2.26 193.96 2.26L193.96 2.26Q194.52 2.26 194.82 2.57Q195.12 2.88 195.12 3.40L195.12 3.40Q195.12 4.62 193.96 4.62ZM197.06 14.52L197.06 14.52Q196.98 14.52 196.98 14.40Q196.98 14.28 197.06 14.28L197.06 14.28Q197.82 14.28 198.04 14.02Q198.26 13.76 198.26 12.90L198.26 12.90L198.26 8.40Q198.26 7.96 198.14 7.75Q198.02 7.54 197.74 7.47Q197.46 7.40 196.98 7.40L196.98 7.40Q196.92 7.40 196.92 7.22Q196.92 7.04 196.98 7.04L196.98 7.04Q197.68 7.04 197.94 6.85Q198.20 6.66 198.22 6.16L198.22 6.16Q198.32 2.84 199.48 1.42Q200.64 0 202.90 0L202.90 0Q204.02 0 204.64 0.30Q205.26 0.60 205.26 1.18L205.26 1.18Q205.26 1.66 204.94 1.91Q204.62 2.16 204.24 2.16L204.24 2.16Q203.70 2.16 203.49 1.89Q203.28 1.62 203.14 1.30L203.14 1.30Q203.00 0.98 202.81 0.72Q202.62 0.46 202.12 0.46L202.12 0.46Q201.26 0.46 200.70 1.68Q200.14 2.90 200.14 5.74L200.14 5.74L200.14 12.90Q200.14 13.48 200.26 13.78Q200.38 14.08 200.76 14.18Q201.14 14.28 201.92 14.28L201.92 14.28Q202.00 14.28 202.00 14.40Q202.00 14.52 201.92 14.52L201.92 14.52Q201.22 14.52 200.55 14.50Q199.88 14.48 199.18 14.48L199.18 14.48Q198.60 14.48 198.05 14.50Q197.50 14.52 197.06 14.52ZM202.28 7.82L202.28 7.82Q201.50 7.64 200.79 7.57Q200.08 7.50 199.28 7.50L199.28 7.50L199.28 6.98Q200.04 6.98 200.78 6.92Q201.52 6.86 202.34 6.78L202.34 6.78Q202.40 6.78 202.44 6.93Q202.48 7.08 202.48 7.26L202.48 7.26Q202.48 7.46 202.41 7.65Q202.34 7.84 202.28 7.82ZM207.32 14.76L207.32 14.76Q206.02 14.76 205.11 14.22Q204.20 13.68 203.73 12.79Q203.26 11.90 203.26 10.90L203.26 10.90Q203.26 9.72 203.86 8.75Q204.46 7.78 205.49 7.20Q206.52 6.62 207.82 6.62L207.82 6.62Q209.06 6.62 209.72 7.15Q210.38 7.68 210.38 8.60L210.38 8.60Q210.38 8.82 210.34 9Q210.30 9.18 210.16 9.18L210.16 9.18L208.24 9.18Q208.28 8.24 208.02 7.63Q207.76 7.02 207.08 7.02L207.08 7.02Q206.28 7.02 205.78 7.85Q205.28 8.68 205.28 10.06L205.28 10.06Q205.28 11.18 205.64 12.02Q206.00 12.86 206.68 13.32Q207.36 13.78 208.32 13.78L208.32 13.78Q208.80 13.78 209.35 13.64Q209.90 13.50 210.34 13.22L210.34 13.22Q210.38 13.18 210.45 13.26Q210.52 13.34 210.48 13.40L210.48 13.40Q209.74 14.14 208.97 14.45Q208.20 14.76 207.32 14.76ZM208.94 9.18L204.58 9.22L204.56 8.84L208.94 8.74L208.94 9.18Z"></path></g></svg></svg>