<svg xmlns="http://www.w3.org/2000/svg" width="249" height="198.8457988688265" viewBox="0 0 249 198.8457988688265" class="editor-view__logo-preview" data-v-8d8ae3dd="" data-v-b9d2a614=""><svg id="mark" viewBox="0 0 512 512" width="120" height="120" x="64.5" y="0" data-v-8d8ae3dd="" style="fill: rgb(13, 19, 26);"><rect x="0" y="0" width="100%" height="100%" fill="none" data-v-8d8ae3dd=""></rect><g data-v-8d8ae3dd="">
<path xmlns="http://www.w3.org/2000/svg" d="M0 0 C1.41466553 0.24943359 1.41466553 0.24943359 2.85791016 0.50390625 C48.89079706 8.93169365 91.31582142 30.95826973 125.5390625 62.72265625 C127.73959446 64.75902154 129.97728703 66.73261853 132.25 68.6875 C138.70503661 74.31429362 144.49115714 80.4519432 150 87 C150.46180664 87.5480127 150.92361328 88.09602539 151.39941406 88.66064453 C181.67651947 124.76174147 201.09216314 165.66440191 210 212 C210.17789062 212.92071289 210.35578125 213.84142578 210.5390625 214.79003906 C221.82012473 276.36583706 204.53805815 342.58063601 169.8125 393.875 C160.63229924 407.14313357 150.18424986 419.3890061 139 431 C138.46874512 431.55316895 137.93749023 432.10633789 137.39013672 432.67626953 C130.32106302 439.99728527 123.04676829 446.7451591 115 453 C113.52660156 454.18142578 113.52660156 454.18142578 112.0234375 455.38671875 C68.2681503 490.18877887 15.48012129 508.50166765 -40.3125 508.375 C-41.22253784 508.37445618 -42.13257568 508.37391235 -43.07019043 508.37335205 C-105.31975223 508.20349405 -163.15533748 483.8229952 -209 442 C-210.03398926 441.05858154 -210.03398926 441.05858154 -211.08886719 440.09814453 C-213.23395113 438.13643851 -215.36934881 436.16486693 -217.5 434.1875 C-218.14662598 433.58953613 -218.79325195 432.99157227 -219.45947266 432.37548828 C-223.94744166 428.15965836 -228.00596994 423.68221917 -232 419 C-232.8880674 417.98978033 -233.77728551 416.98057037 -234.66796875 415.97265625 C-256.98845919 390.19162465 -273.98960054 359.60620051 -284 327 C-284.26651367 326.13584473 -284.53302734 325.27168945 -284.80761719 324.38134766 C-289.1284157 310.10811878 -291.88058405 295.74848576 -294 281 C-294.11859375 280.21254395 -294.2371875 279.42508789 -294.359375 278.61376953 C-303.20880468 219.18300145 -281.87337571 154.34139018 -246.765625 106.65234375 C-242.99615346 101.6354305 -239.07133517 96.7749384 -235 92 C-234.07745935 90.89248122 -233.15562327 89.78437528 -232.234375 88.67578125 C-222.93262603 77.55932011 -213.10417046 67.15656594 -201.70703125 58.15625 C-199.90069834 56.71743937 -198.12643907 55.23742962 -196.38671875 53.71875 C-162.4576967 24.15682979 -119.17922333 5.94902367 -75 -1 C-73.824375 -1.20496094 -72.64875 -1.40992188 -71.4375 -1.62109375 C-48.16381147 -5.07876264 -23.09429189 -4.1042156 0 0 Z M-117 23 C-116.40329046 26.12765868 -115.7480965 28.90639472 -114.4375 31.8125 C-113.963125 32.864375 -113.48875 33.91625 -113 35 C-111.54148119 34.60485063 -110.08320674 34.20879943 -108.625 33.8125 C-107.61695313 33.54050781 -106.60890625 33.26851562 -105.5703125 32.98828125 C-103.01353343 32.28055138 -100.47147225 31.55051329 -97.9296875 30.79296875 C-87.06122731 27.59528796 -76.24292456 25.40188207 -65 24 C-64.23244385 23.90356201 -63.4648877 23.80712402 -62.67407227 23.70776367 C-45.67631684 21.78216301 -27.87096604 22.10288591 -11 25 C-9.84806152 25.19335938 -9.84806152 25.19335938 -8.67285156 25.390625 C22.4194571 30.75265188 52.56523562 42.04779732 78 61 C78.9178125 61.66386719 79.835625 62.32773438 80.78125 63.01171875 C88.32682086 68.54182792 95.42087678 74.50590529 102.46240234 80.65771484 C103.79980156 81.82523166 105.14349837 82.98552685 106.48828125 84.14453125 C145.758278 118.08978268 172.04600207 165.34990445 182 216 C182.16806152 216.85384277 182.33612305 217.70768555 182.50927734 218.58740234 C187.3872474 244.65547653 186.3865015 272.1253182 181 298 C180.81808105 298.8878418 180.63616211 299.77568359 180.44873047 300.69042969 C176.5210075 319.25848555 170.09796944 337.31544042 161.06835938 354.01513672 C159.94404876 356.10394963 158.85507647 358.20922709 157.765625 360.31640625 C141.07059034 392.04251863 116.21771087 417.73990962 87.1875 438.3125 C86.10178711 439.08207031 86.10178711 439.08207031 84.99414062 439.8671875 C81.30444902 442.45847322 77.58305409 444.85045772 73.6875 447.125 C69.45974431 449.84111073 68.55059967 453.1072492 67 457.73828125 C65.38176143 461.39828175 62.48998836 462.53983601 59 464 C57.18384479 464.90940326 55.37144505 465.82633782 53.5625 466.75 C52.04265263 467.50199602 50.52216235 468.25270098 49 469 C49.34227572 471.97065509 49.34227572 471.97065509 50 475 C50.66 475.33 51.32 475.66 52 476 C55.60478726 474.75087619 59.00578883 472.97242916 62.4375 471.3125 C63.98618774 470.56516602 63.98618774 470.56516602 65.56616211 469.80273438 C80.91436883 462.24248311 94.90874645 452.98922532 108 442 C108.6079541 441.49355957 109.2159082 440.98711914 109.84228516 440.46533203 C122.75835004 429.6581482 134.58201481 418.26289653 145 405 C145.6290625 404.24976563 146.258125 403.49953125 146.90625 402.7265625 C153.63842999 394.64242833 159.3065007 385.82871181 165 377 C165.41427246 376.36433105 165.82854492 375.72866211 166.25537109 375.07373047 C183.69605326 348.12527617 193.88314394 316.50719434 199 285 C199.19078125 283.89269531 199.3815625 282.78539062 199.578125 281.64453125 C205.90309256 227.00383927 192.43895333 168.80819908 160 124 C159.58250488 123.41557129 159.16500977 122.83114258 158.73486328 122.22900391 C144.87050166 102.83287682 129.34755138 84.33785841 111 69 C110.43893555 68.53045898 109.87787109 68.06091797 109.29980469 67.57714844 C100.49659127 60.23887654 91.60139507 53.27644521 82 47 C81.02417969 46.35933594 80.04835938 45.71867187 79.04296875 45.05859375 C19.8224222 7.42807957 -50.92743817 1.28704397 -117 23 Z M-179 58 C-179.80824219 58.63679688 -180.61648437 59.27359375 -181.44921875 59.9296875 C-189.70979021 66.51402621 -197.37594147 73.69657945 -205 81 C-205.5269043 81.50354004 -206.05380859 82.00708008 -206.59667969 82.52587891 C-213.28646381 88.95465178 -219.23437191 95.74148607 -225 103 C-226.54038715 104.85522979 -228.08205242 106.70939911 -229.625 108.5625 C-233.69220037 113.53900513 -237.40361472 118.67671607 -241 124 C-241.72960937 125.051875 -242.45921875 126.10375 -243.2109375 127.1875 C-243.94570312 128.26 -244.68046875 129.3325 -245.4375 130.4375 C-246.11683594 131.42621094 -246.79617187 132.41492188 -247.49609375 133.43359375 C-249.25279234 135.93562379 -249.25279234 135.93562379 -249 139 C-245.37 140.65 -241.74 142.3 -238 144 C-237.24976563 142.77925781 -236.49953125 141.55851562 -235.7265625 140.30078125 C-229.6184831 130.44246165 -223.37908147 120.96471553 -216 112 C-215.5575293 111.45601563 -215.11505859 110.91203125 -214.65917969 110.3515625 C-203.41892425 96.60027043 -191.0084434 83.93436832 -177 73 C-175.87228213 72.06315783 -174.74745614 71.1228275 -173.625 70.1796875 C-159.03860985 58.02436238 -142.62025088 49.05666153 -126 40 C-126 36.76344816 -126.6550847 35.21247361 -128 32.3125 C-128.37125 31.50425781 -128.7425 30.69601563 -129.125 29.86328125 C-129.41375 29.24839844 -129.7025 28.63351563 -130 28 C-144.59909944 28 -168.01758763 48.97048314 -179 58 Z M-125 55 C-125.73331543 55.36383789 -126.46663086 55.72767578 -127.22216797 56.10253906 C-136.57584017 60.79057595 -145.49259125 65.88205341 -154 72 C-155.02222656 72.72445312 -156.04445312 73.44890625 -157.09765625 74.1953125 C-183.03560571 93.29421574 -204.19517359 121.72602642 -213 153 C-212.67 153.99 -212.34 154.98 -212 156 C-211.68361572 155.29093506 -211.36723145 154.58187012 -211.04125977 153.85131836 C-198.30281198 125.43229983 -184.14731388 100.34675944 -159 81 C-158.08734375 80.27167969 -157.1746875 79.54335937 -156.234375 78.79296875 C-117.62895581 48.67863219 -66.84230402 35.54472883 -18.39404297 40.87744141 C36.64089139 48.03209698 82.70209877 78.38259107 117.81640625 120.36328125 C118.31043945 120.95222168 118.80447266 121.54116211 119.31347656 122.14794922 C120.30179579 123.32781566 121.28690406 124.51038028 122.26855469 125.69580078 C124.76408039 128.78776309 124.76408039 128.78776309 128 131 C125.70012191 125.84016988 121.89178738 121.84012193 118.28857422 117.54736328 C117.053191 116.06387354 115.84048375 114.56158858 114.62890625 113.05859375 C79.54123532 70.19799104 31.45955817 41.82628025 -24 36 C-29.44116177 35.69161752 -34.86358598 35.60903051 -40.3125 35.625 C-41.05022644 35.62587616 -41.78795288 35.62675232 -42.54803467 35.62765503 C-71.33188446 35.73949633 -99.20027823 42.13263246 -125 55 Z M-72 57 C-71.67 57.66 -71.34 58.32 -71 59 C-68.77629928 59.48341719 -68.77629928 59.48341719 -66.05859375 59.67578125 C-65.0121167 59.77858398 -63.96563965 59.88138672 -62.88745117 59.98730469 C-61.74896729 60.09461914 -60.6104834 60.20193359 -59.4375 60.3125 C-26.07622362 63.85008629 3.91220815 73.99691844 33.625 89.375 C34.6154834 89.88699951 35.6059668 90.39899902 36.62646484 90.92651367 C38.00632568 91.65511597 38.00632568 91.65511597 39.4140625 92.3984375 C40.2282666 92.82817871 41.0424707 93.25791992 41.88134766 93.70068359 C43.95814387 94.97433069 45.46971896 96.10729993 47 98 C47.42478586 102.07794425 47.31282587 103.53076119 45 107 C39.90512615 107.73231327 36.66405707 106.156583 32.2109375 103.7890625 C31.58522858 103.46086517 30.95951965 103.13266785 30.31484985 102.79452515 C28.3286096 101.74943736 26.3518696 100.68768795 24.375 99.625 C23.03966389 98.91813358 21.70373126 98.21239284 20.3671875 97.5078125 C17.91458004 96.21347977 15.46664427 94.91155455 13.02099609 93.60400391 C12.02406738 93.07468262 11.02713867 92.54536133 10 92 C9.2673291 91.5982959 8.5346582 91.1965918 7.77978516 90.78271484 C5.8663544 89.79871486 5.8663544 89.79871486 3 90 C1.14319375 95.92483779 -0.70807485 101.85136614 -2.55419922 107.77954102 C-3.18320677 109.79661918 -3.81373356 111.81322422 -4.44580078 113.8293457 C-5.35327159 116.72484713 -6.25529195 119.62199772 -7.15625 122.51953125 C-7.44060913 123.42274612 -7.72496826 124.325961 -8.01794434 125.25654602 C-8.408349 126.5175135 -8.408349 126.5175135 -8.80664062 127.80395508 C-9.15305603 128.91315056 -9.15305603 128.91315056 -9.50646973 130.04475403 C-10.12236868 132.14869952 -10.12236868 132.14869952 -10 135 C-7.42656611 136.65815655 -4.87967209 138.11834216 -2.1875 139.5625 C22.19268461 153.15900585 45.04579928 169.81676516 67 187 C69.92684873 184.49257174 71.13470823 181.82957799 72.62890625 178.30859375 C73.10650391 177.19935547 73.58410156 176.09011719 74.07617188 174.94726562 C74.56666016 173.78904297 75.05714844 172.63082031 75.5625 171.4375 C76.53870697 169.1427136 77.51897836 166.84965065 78.50390625 164.55859375 C78.93517822 163.54079834 79.3664502 162.52300293 79.81079102 161.47436523 C81 159 81 159 83 157 C85.69385039 157.20721926 87.51411726 157.69841761 89.8125 159.125 C91.62790171 161.99142375 91.42454136 164.74127646 91 168 C89.98122016 171.37166755 88.6338481 174.57616021 87.25 177.8125 C86.90195312 178.65103516 86.55390625 179.48957031 86.1953125 180.35351562 C83.2480875 187.45414475 83.2480875 187.45414475 81.84179688 190.54833984 C79.2960298 196.35488882 78.45538911 200.70974421 79 207 C79.09796875 208.21300781 79.1959375 209.42601562 79.296875 210.67578125 C79.53940689 213.55945908 79.79881618 216.44116804 80.06762695 219.32250977 C83.40456493 255.15265088 82.59046847 288.8802331 70.79199219 323.23828125 C70.14565533 325.14292111 69.56602865 327.06996998 69 329 C69.33 329.66 69.66 330.32 70 331 C100.75560837 296.35027068 118.90208065 251.31918624 117 205 C114.61071908 169.87064508 103.31141187 132.01732862 80 105 C79.16275391 104.02933594 79.16275391 104.02933594 78.30859375 103.0390625 C50.66648217 73.52643209 5.82807837 55.25993435 -34.07421875 53.78125 C-46.96108831 53.48406371 -59.31282921 54.8206087 -72 57 Z M-122 74 C-123.21300781 74.44730469 -124.42601562 74.89460938 -125.67578125 75.35546875 C-137.64926116 80.15257724 -147.71112546 87.33807215 -158 95 C-157.42069642 98.44147837 -156.55370829 101.26056402 -154.99609375 104.37890625 C-154.58875 105.20874023 -154.18140625 106.03857422 -153.76171875 106.89355469 C-153.32472656 107.77430664 -152.88773438 108.65505859 -152.4375 109.5625 C-148.38583566 117.85611638 -144.7711194 126.2290888 -141.51342773 134.86547852 C-141.20993408 135.65752686 -140.90644043 136.4495752 -140.59375 137.265625 C-140.33271484 137.96461914 -140.07167969 138.66361328 -139.80273438 139.38378906 C-139.10323267 141.19927016 -139.10323267 141.19927016 -137 142 C-130.68081779 136.88889674 -125.27299718 131.09178777 -119.83203125 125.0859375 C-111.7109412 116.16964006 -111.7109412 116.16964006 -107.2421875 115.7265625 C-99.54199399 115.49430608 -94.92597343 116.05826228 -89 121 C-88.14189224 121.88487595 -88.14189224 121.88487595 -87.26644897 122.78762817 C-82.76269481 127.32658026 -79.56536802 128.80560261 -73.18423462 128.91989136 C-72.22882782 128.90249908 -71.27342102 128.88510681 -70.2890625 128.8671875 C-68.77679581 128.88206711 -68.77679581 128.88206711 -67.23397827 128.89724731 C-64.03015046 128.92224938 -60.8287892 128.90010504 -57.625 128.875 C-54.42907194 128.88176489 -51.23332284 128.8982138 -48.03744507 128.91702271 C-46.05619953 128.92522036 -44.07489082 128.92471464 -42.09365845 128.91378784 C-36.00053371 128.89613867 -30.04988453 129.27372691 -24 130 C-21.35848539 123.26456243 -19.17707635 116.4107301 -17.03833008 109.50073242 C-16.43943875 107.56875427 -15.83418839 105.63884572 -15.22851562 103.70898438 C-13.19987245 97.17600828 -11.35021512 90.70728482 -10 84 C-42.16592721 71.85703953 -88.61029057 61.58932549 -122 74 Z M-170.4609375 109.3359375 C-190.57145552 130.75979548 -203.94364746 164.93338864 -204.125 194.3125 C-204.08375 195.529375 -204.0425 196.74625 -204 198 C-203.2265625 197.505 -203.2265625 197.505 -202.4375 197 C-199.22862458 195.68353829 -196.43839177 195.93580599 -193 196 C-190.94967241 204.56949108 -188.94242032 213.14368322 -187.10546875 221.76171875 C-183.53363176 238.46058117 -179.82640303 254.91054057 -174 271 C-173.39091797 272.7325 -173.39091797 272.7325 -172.76953125 274.5 C-163.47374367 298.86575039 -142.34953611 320.03799896 -124.14404297 338.06176758 C-122.23205738 339.95526917 -120.32842351 341.85688 -118.42578125 343.75976562 C-112.45266959 349.71575401 -106.45682458 355.5642066 -100 361 C-98.91629107 361.94860763 -97.83421981 362.89908988 -96.75390625 363.8515625 C-90.38234596 369.40947939 -83.87844237 374.76759679 -77.1875 379.9375 C-76.16668335 380.73438232 -76.16668335 380.73438232 -75.12524414 381.54736328 C-70.42023252 385.14052942 -65.48938339 388.70924496 -60 391 C-59.34 390.67 -58.68 390.34 -58 390 C-58.62003906 389.51273437 -59.24007812 389.02546875 -59.87890625 388.5234375 C-72.16661747 378.68611411 -83.35701653 367.72499593 -94.5 356.625 C-95.336521 355.79315186 -96.17304199 354.96130371 -97.03491211 354.10424805 C-101.89601233 349.23046966 -106.53593716 344.23870072 -111 339 C-111.87730612 337.99062629 -112.75488861 336.98149269 -113.6328125 335.97265625 C-124.33972777 323.4700671 -134.21048605 310.33939687 -143.67724609 296.87890625 C-145.16178652 294.77019028 -146.65290192 292.66620704 -148.14453125 290.5625 C-149.22153557 289.04179512 -150.29836103 287.52096356 -151.375 286 C-151.87523682 285.29359375 -152.37547363 284.5871875 -152.89086914 283.859375 C-153.83791792 282.51792256 -154.77992978 281.17289669 -155.71630859 279.82397461 C-156.83648249 278.23233916 -158.00795665 276.6770569 -159.1875 275.12890625 C-161.64581062 270.88514158 -162.57224132 266.7006975 -163.625 261.9375 C-163.86589355 260.89400391 -164.10678711 259.85050781 -164.35498047 258.77539062 C-165.07815452 255.61827979 -165.78746459 252.45838628 -166.48974609 249.29656982 C-167.05246651 246.76385678 -167.6179132 244.23176053 -168.18359375 241.69970703 C-169.92971942 233.87838424 -171.67330337 226.05653138 -173.39697266 218.23022461 C-173.6024472 217.29850937 -173.80792175 216.36679413 -174.0196228 215.40684509 C-174.42565457 213.56480912 -174.83079803 211.72257709 -175.23501587 209.88014221 C-176.17579568 205.61613878 -177.14401155 201.3634619 -178.19433594 197.125 C-178.47541702 195.9810376 -178.47541702 195.9810376 -178.76217651 194.81396484 C-179.10854921 193.41639379 -179.46239759 192.02064008 -179.82595825 190.62744141 C-180.98830232 185.93071175 -181.30394621 181.80145053 -181 177 C-177.99382731 173.99382731 -175.17618402 174.40414684 -171 174 C-168.56196235 181.83422764 -166.44450545 189.73277486 -164.4375 197.6875 C-164.26936798 198.34842651 -164.10123596 199.00935303 -163.92800903 199.69030762 C-161.53877393 209.12290845 -159.42915149 218.59158059 -157.5 228.12890625 C-157.28714859 229.17104782 -157.07429718 230.21318939 -156.85499573 231.28691101 C-155.79740095 236.4711271 -154.76269683 241.65809907 -153.76538086 246.85424805 C-151.64904658 257.52897184 -149.40720492 266.04125329 -143 275 C-142.03427763 276.50167218 -141.07182747 278.00545577 -140.11328125 279.51171875 C-139.18415731 280.90663344 -138.2504957 282.29853551 -137.3125 283.6875 C-136.80195068 284.44659668 -136.29140137 285.20569336 -135.76538086 285.98779297 C-134.18381738 288.32997047 -132.5937746 290.66611755 -131 293 C-130.50306641 293.72944824 -130.00613281 294.45889648 -129.49414062 295.21044922 C-122.16986285 305.91386043 -114.3164365 316.05222221 -106 326 C-105.05198678 327.14445127 -104.10406634 328.28897941 -103.15625 329.43359375 C-88.65730483 346.84993067 -73.05121429 364.22545421 -55 378 C-53.89515594 378.85980735 -52.7910267 379.72053377 -51.6875 380.58203125 C-49.45087467 382.32374644 -47.20264747 384.04819307 -44.94140625 385.7578125 C-43.2384412 387.05595585 -41.54961469 388.37406303 -39.90234375 389.7421875 C-35.44506822 393.33643702 -32.50011999 393.48246667 -27 393 C-29.6870781 390.30792733 -32.37997158 387.62230845 -35.0859375 384.94921875 C-40.95236094 379.14116769 -46.67378487 373.31296657 -52 367 C-52.89854156 365.96380366 -53.79840513 364.92875299 -54.69921875 363.89453125 C-66.90853038 349.83978804 -78.10730872 335.09299396 -89 320 C-89.64662598 319.10603516 -90.29325195 318.21207031 -90.95947266 317.29101562 C-112.67935733 287.11359581 -134.60065687 254.20043598 -135.28125 215.90234375 C-135.6739959 194.91689961 -137.80135837 177.66736549 -146.0980835 158.14862061 C-147.4909732 154.83036275 -148.82787378 151.48988461 -150.1714325 148.15141296 C-153.47270316 139.95557466 -156.81868268 131.7783826 -160.2421875 123.6328125 C-160.56169876 122.8642543 -160.88121002 122.09569611 -161.21040344 121.30384827 C-163.1777634 116.65600177 -165.41472707 112.33596397 -168 108 C-169.20694847 107.88752823 -169.20694847 107.88752823 -170.4609375 109.3359375 Z M-128.32421875 145.80078125 C-130.01930593 148.02533623 -131.69066682 149.44535086 -134 151 C-133.37131376 156.38258766 -131.58921114 160.96359588 -129.5625 165.9375 C-124.97834739 177.2702814 -122.99170796 187.39292017 -122.70996094 199.59326172 C-121.89367259 234.12601191 -112.88939152 260.05478535 -94 289 C-93.175 288.5875 -92.35 288.175 -91.5 287.75 C-89.69729796 286.84864898 -87.89452202 285.94744308 -86.09057617 285.04858398 C-82.77602161 283.39558697 -79.468573 281.7311347 -76.17578125 280.03515625 C-65.99377987 274.81641042 -55.6071763 270.2818882 -45 266 C-44.07799805 265.62214355 -43.15599609 265.24428711 -42.20605469 264.85498047 C-39.37306007 263.69874466 -36.53201308 262.56506369 -33.6875 261.4375 C-32.81005127 261.07849609 -31.93260254 260.71949219 -31.02856445 260.34960938 C-26.28763376 258.50639954 -23.07479801 257.48501136 -18 259 C-17.85304688 260.10988281 -17.70609375 261.21976563 -17.5546875 262.36328125 C-12.06726972 302.78995085 -5.80455246 344.73291332 14 381 C32.10096528 373.43781895 39.92565927 361.12509482 48 344 C48.30583008 343.36562012 48.61166016 342.73124023 48.92675781 342.07763672 C57.70174039 323.78443534 63.06286505 304.04052232 66 284 C66.1546875 282.94824585 66.1546875 282.94824585 66.3125 281.87524414 C67.43952316 272.66484866 67.24122621 263.32629495 67.25 254.0625 C67.25167175 253.13490875 67.25334351 252.2073175 67.25506592 251.25161743 C68.91736656 223.22529508 68.91736656 223.22529508 60.49804688 198.4453125 C59.91087891 198.00960937 59.32371094 197.57390625 58.71875 197.125 C58.05198242 196.62210449 57.38521484 196.11920898 56.69824219 195.60107422 C55.97282227 195.07271973 55.24740234 194.54436523 54.5 194 C53.3538623 193.14752686 53.3538623 193.14752686 52.18457031 192.27783203 C50.58083536 191.08896921 48.97301064 189.90560531 47.36132812 188.72753906 C45.19387591 187.14183891 43.04080825 185.53867526 40.890625 183.9296875 C5.39088922 155.40390297 5.39088922 155.40390297 -36.078125 141.78222656 C-37.55490723 141.74648529 -37.55490723 141.74648529 -39.06152344 141.71002197 C-40.63981934 141.67567047 -40.63981934 141.67567047 -42.25 141.640625 C-44.48961834 141.57673633 -46.7292012 141.51159385 -48.96875 141.4453125 C-52.49081278 141.34397941 -56.01238393 141.24974343 -59.53515625 141.17675781 C-62.94111611 141.10350113 -66.34502347 140.99970244 -69.75 140.890625 C-70.80219727 140.87582092 -71.85439453 140.86101685 -72.93847656 140.84576416 C-80.25880655 140.57484606 -80.25880655 140.57484606 -84.09375 137.60058594 C-85.33046232 135.91341129 -86.55037823 134.21374539 -87.75 132.5 C-91.94916059 127.83426601 -97.21473166 124.75938044 -103.5625 124.375 C-115.41607057 125.1583664 -122.42406847 136.83086305 -128.32421875 145.80078125 Z M-212 129 C-212 132 -212 132 -212 132 Z M128 131 C129.11854586 134.72614153 129.11854586 134.72614153 132 137 C130.88145414 133.27385847 130.88145414 133.27385847 128 131 Z M-214 132 C-215.06728171 133.49032898 -216.13431087 134.98083935 -217.20019531 136.47216797 C-218.11245525 137.74638911 -219.02719388 139.01883911 -219.94433594 140.28955078 C-222.04307912 143.20726165 -224.07904252 146.12401234 -226.01171875 149.15625 C-226.58535156 150.0534375 -227.15898437 150.950625 -227.75 151.875 C-228.23984375 152.67679688 -228.7296875 153.47859375 -229.234375 154.3046875 C-231 156 -231 156 -234.203125 156.2578125 C-235.12609375 156.17273438 -236.0490625 156.08765625 -237 156 C-238.69242904 160.49412384 -238.69242904 160.49412384 -240.375 164.99194336 C-241.80699692 168.83301113 -243.25522255 172.6657402 -244.74609375 176.484375 C-248.04931647 185.04033885 -250.89189958 193.63399015 -253.25 202.5 C-253.60094727 203.79562866 -253.60094727 203.79562866 -253.95898438 205.11743164 C-257.93855616 220.66940433 -259.56147527 236.10647777 -259.4375 252.125 C-259.43445862 252.96795624 -259.43141724 253.81091248 -259.42828369 254.67941284 C-259.35195149 269.07481718 -258.25170504 282.93649945 -255 297 C-254.78569336 297.93505371 -254.57138672 298.87010742 -254.35058594 299.83349609 C-243.75790464 344.58641817 -218.97127566 388.15307147 -180 414 C-179.35289062 414.43570312 -178.70578125 414.87140625 -178.0390625 415.3203125 C-176.69762195 416.22090404 -175.34979408 417.11197758 -174 418 C-173.34 417.67 -172.68 417.34 -172 417 C-172.92941406 416.0821875 -173.85882813 415.164375 -174.81640625 414.21875 C-186.65268766 402.4864781 -186.65268766 402.4864781 -191.375 396.90234375 C-193.29772282 394.65146391 -195.30636031 392.48930088 -197.3125 390.3125 C-235.37140773 347.93896144 -252.0098943 295.41103342 -250 239 C-247.6841313 201.26364671 -234.81534393 164.7370252 -213 134 C-213.495 133.01 -213.495 133.01 -214 132 Z M133 138 C134 140 134 140 134 140 Z M-258 150 C-285.49577494 213.16835001 -292.14136978 273.46436897 -267 339 C-256.67613547 364.92870958 -242.39040863 388.07094749 -224 409 C-223.43410156 409.67675781 -222.86820313 410.35351562 -222.28515625 411.05078125 C-213.01018317 422.07218692 -202.42955386 432.25524067 -191 441 C-190.43265137 441.44375977 -189.86530273 441.88751953 -189.28076172 442.34472656 C-173.87201476 454.3931203 -157.68510215 464.63976989 -140 473 C-138.88431641 473.59941406 -138.88431641 473.59941406 -137.74609375 474.2109375 C-135.86371508 475.2059026 -135.86371508 475.2059026 -133 475 C-132.34 472.69 -131.68 470.38 -131 468 C-131.97582031 467.54109375 -132.95164063 467.0821875 -133.95703125 466.609375 C-135.24244775 465.99012326 -136.52758975 465.3703015 -137.8125 464.75 C-138.45509766 464.44964844 -139.09769531 464.14929688 -139.75976562 463.83984375 C-143.43631463 462.04919294 -146.05426257 460.64583359 -148 457 C-148.26683594 455.83855469 -148.53367188 454.67710937 -148.80859375 453.48046875 C-150.34575491 448.9899422 -151.86517861 448.3798374 -156.0625 446.3125 C-179.18942996 434.19192331 -202.61585168 415.40704188 -219 395 C-219.804375 394.03320312 -220.60875 393.06640625 -221.4375 392.0703125 C-246.74529496 361.21899258 -261.61032038 324.18106204 -268 285 C-268.12987305 284.2467041 -268.25974609 283.4934082 -268.39355469 282.71728516 C-275.24625772 241.97537426 -266.84315627 199.49189002 -249.43823242 162.49291992 C-247.51445228 158.42559655 -247.51445228 158.42559655 -247 154 C-248.26691507 153.32591692 -249.53870749 152.66099503 -250.8125 152 C-251.52019531 151.62875 -252.22789062 151.2575 -252.95703125 150.875 C-255.08920729 149.80314642 -255.08920729 149.80314642 -258 150 Z M130.875 160 C129.96492187 160.556875 129.05484375 161.11375 128.1171875 161.6875 C127.06917969 162.3371875 127.06917969 162.3371875 126 163 C126.65877981 170.11334151 127.95874145 176.95378767 129.4375 183.9375 C139.88771594 235.60531184 134.48954621 289.25531923 105.30078125 334.2265625 C99.99290053 342.18791854 94.28144577 349.77687241 88 357 C87.17113281 357.96292969 86.34226562 358.92585937 85.48828125 359.91796875 C62.39812584 386.23587224 29.28217934 406.00196075 -4.9453125 413.4921875 C-6.9793844 413.80711876 -6.9793844 413.80711876 -8 415 C-7.91062197 416.52519276 -7.75462854 418.04681929 -7.5625 419.5625 C-7.46066406 420.38878906 -7.35882813 421.21507812 -7.25390625 422.06640625 C-7.17011719 422.70449219 -7.08632813 423.34257812 -7 424 C-6.43418213 424.00410889 -5.86836426 424.00821777 -5.28540039 424.01245117 C6.41119961 424.15887831 17.706303 424.99393823 29.1875 427.3125 C30.6888147 427.61353638 30.6888147 427.61353638 32.22045898 427.9206543 C38.45031778 429.25249109 44.27636628 431.07406574 50.2043457 433.41479492 C55.02536085 434.4239621 58.85019818 432.33491159 62.84765625 429.75 C63.869198 429.09257813 63.869198 429.09257813 64.91137695 428.421875 C65.62124756 427.95265625 66.33111816 427.4834375 67.0625 427 C67.80910889 426.51015625 68.55571777 426.0203125 69.32495117 425.515625 C80.11726737 418.35534938 90.06820159 410.45998027 99.43457031 401.49365234 C100.49769677 400.47927186 101.56763628 399.4719937 102.64355469 398.47119141 C118.54212893 383.65973837 130.90845513 366.19013822 141 347 C141.37205566 346.29311035 141.74411133 345.5862207 142.12744141 344.85791016 C154.26089694 321.38672548 161.96291169 294.10034814 162.23828125 267.6015625 C162.2480751 266.81760101 162.25786896 266.03363953 162.26795959 265.22592163 C162.45068706 246.77556437 161.97109984 229.10265453 158 211 C157.78569336 210.01161133 157.57138672 209.02322266 157.35058594 208.00488281 C153.36101528 190.18247763 147.49969073 172.68888317 138 157 C135.05613377 157 133.36113502 158.47007076 130.875 160 Z M-227 174 C-231.8159517 189.51339318 -236.50012465 204.92450728 -239 221 C-239.11569336 221.73992187 -239.23138672 222.47984375 -239.35058594 223.2421875 C-244.70393 259.46065773 -240.59334195 298.30919821 -226 332 C-225.68192383 332.74024414 -225.36384766 333.48048828 -225.03613281 334.24316406 C-215.53134912 356.04188449 -202.09114364 374.60196145 -186 392 C-184.68708984 393.46759766 -184.68708984 393.46759766 -183.34765625 394.96484375 C-171.5898569 408.08905637 -158.33581112 419.03918985 -143.625 428.6875 C-142.97128418 429.13407959 -142.31756836 429.58065918 -141.64404297 430.04077148 C-138.33911743 432.1451683 -136.59717453 433.01369666 -132.59375 432.921875 C-131.4078125 432.61765625 -130.221875 432.3134375 -129 432 C-128.30052246 431.82315674 -127.60104492 431.64631348 -126.88037109 431.46411133 C-124.53686962 430.85813797 -122.20682812 430.21184003 -119.875 429.5625 C-107.74539592 426.30750815 -96.07854418 424.78779282 -83.53735352 424.34082031 C-82.70518311 424.30956055 -81.8730127 424.27830078 -81.015625 424.24609375 C-80.26571289 424.22216553 -79.51580078 424.1982373 -78.74316406 424.17358398 C-76.97190765 424.18309422 -76.97190765 424.18309422 -76 423 C-75.92851801 421.64756083 -75.91600546 420.29165633 -75.9375 418.9375 C-75.9684375 416.9884375 -75.9684375 416.9884375 -76 415 C-79.71100987 413.53105859 -83.36515974 412.17587312 -87.21484375 411.109375 C-106.09641933 405.79955102 -124.32276055 396.79749574 -140 385 C-140.60376465 384.54737793 -141.2075293 384.09475586 -141.82958984 383.62841797 C-152.06643071 375.88862838 -161.75550225 367.88304856 -170 358 C-170.76054687 357.12730469 -171.52109375 356.25460937 -172.3046875 355.35546875 C-202.43102572 320.30192568 -218.57999633 273.25276295 -217.95703125 227.12109375 C-217.94693024 226.33569214 -217.93682922 225.55029053 -217.92642212 224.74108887 C-217.88073814 221.48661032 -217.8316855 218.23263233 -217.75317383 214.97875977 C-217.52639054 205.05872386 -217.86880866 197.20258484 -222 188 C-222.83438703 185.45519186 -223.53409463 182.89487295 -224.25 180.3125 C-224.58515625 179.11238281 -224.9203125 177.91226563 -225.265625 176.67578125 C-225.50796875 175.79277344 -225.7503125 174.90976563 -226 174 C-226.33 174 -226.66 174 -227 174 Z M-205 199 C-205.02478423 203.75056583 -205.04289989 208.50109371 -205.05493164 213.25170898 C-205.05994942 214.86662451 -205.06676511 216.48153552 -205.07543945 218.09643555 C-205.08761714 220.42237465 -205.09325395 222.7482535 -205.09765625 225.07421875 C-205.10281754 225.79212082 -205.10797882 226.51002289 -205.11329651 227.24967957 C-205.11370876 230.96290232 -204.88944216 234.38991122 -204 238 C-202.35 237.34 -200.7 236.68 -199 236 C-199.6998638 227.90775173 -200.8461348 219.90386994 -202.0625 211.875 C-202.24876953 210.63234375 -202.43503906 209.3896875 -202.62695312 208.109375 C-203.08247171 205.0725844 -203.54020075 202.03614489 -204 199 C-204.33 199 -204.66 199 -205 199 Z M-201 252 C-200.40618558 256.25151167 -199.79800917 260.50085619 -199.1875 264.75 C-199.02185547 265.93722656 -198.85621094 267.12445313 -198.68554688 268.34765625 C-196.32515908 284.64769274 -192.43480389 296.95988328 -181.625 309.48828125 C-181.10583511 310.09125534 -180.58667023 310.69422943 -180.05177307 311.31547546 C-174.53856497 317.64181483 -168.68892243 323.61396374 -162.73608398 329.5246582 C-160.92778392 331.32215805 -159.13054023 333.13022316 -157.33398438 334.93945312 C-150.53157711 341.7498749 -143.58770631 348.06238597 -136 354 C-134.95035545 354.8562772 -133.90188098 355.71399449 -132.85546875 356.57421875 C-122.79427459 364.5436273 -111.91731671 371.27295364 -101 378 C-99.67452148 378.86637085 -99.67452148 378.86637085 -98.32226562 379.75024414 C-97.17274414 380.36887329 -97.17274414 380.36887329 -96 381 C-95.34 380.67 -94.68 380.34 -94 380 C-94.77601563 379.42894531 -95.55203125 378.85789062 -96.3515625 378.26953125 C-103.87027057 372.65491923 -110.81501615 366.64032072 -117.61328125 360.17578125 C-119.9643847 357.94325279 -122.37103276 355.79875262 -124.828125 353.68359375 C-129.5607372 349.56830346 -134.00630714 345.18563516 -138.4375 340.75 C-139.27788818 339.90880615 -140.11827637 339.0676123 -140.98413086 338.20092773 C-146.73911553 332.38880216 -151.98140407 326.45819316 -157 320 C-158.64162128 318.05892989 -160.2876752 316.12160231 -161.9375 314.1875 C-178.70845633 293.98434795 -187.549313 273.40633706 -194 248 C-196.39175599 248 -199.08498484 250.69615989 -201 252 Z M124 262 C125 264 125 264 125 264 Z M123 265 C124 268 124 268 124 268 Z M122 268 C123 271 123 271 123 271 Z M121 271 C120.45085937 272.62228516 120.45085937 272.62228516 119.890625 274.27734375 C110.14295456 302.28988603 96.40324655 328.287242 76 350 C75.48614746 350.55091309 74.97229492 351.10182617 74.44287109 351.66943359 C58.54419962 368.5559647 40.02103274 381.31491685 19 391 C17.23076172 391.81984375 17.23076172 391.81984375 15.42578125 392.65625 C-13.97163979 405.3336857 -51.43545866 407.90487275 -82 398 C-83.08933838 397.65509521 -83.08933838 397.65509521 -84.20068359 397.30322266 C-115.04295736 387.2824977 -140.21858505 367.74185527 -162.9375 345.1875 C-163.46931885 344.66043457 -164.0011377 344.13336914 -164.54907227 343.59033203 C-167.91212934 340.21288698 -170.99608069 336.70096136 -174 333 C-174 338.65697543 -168.55769277 342.8745903 -165 347 C-164.23429688 347.89074219 -163.46859375 348.78148437 -162.6796875 349.69921875 C-158.09599377 354.91376929 -153.36131994 359.59825949 -148 364 C-147.5138623 364.41443359 -147.02772461 364.82886719 -146.52685547 365.25585938 C-111.97099691 394.71195041 -70.77114375 410.35474667 -25.21728516 406.78173828 C18.18721899 402.03684628 56.99480952 377.62124815 84.6875 344.5625 C99.56383483 325.82635937 111.45174299 305.06276594 119.625 282.5625 C119.88498779 281.85883301 120.14497559 281.15516602 120.4128418 280.43017578 C121.66066415 276.82692839 122.1298908 274.62626499 121 271 Z M-38.64453125 278.23828125 C-40.35805786 278.96640015 -40.35805786 278.96640015 -42.10620117 279.70922852 C-43.34197649 280.24286017 -44.57740259 280.77730119 -45.8125 281.3125 C-46.43283112 281.57988983 -47.05316223 281.84727966 -47.69229126 282.12277222 C-56.45244642 285.90626871 -65.12561719 289.84594718 -73.6875 294.0625 C-74.61860596 294.51471924 -75.54971191 294.96693848 -76.5090332 295.43286133 C-77.35554443 295.85849365 -78.20205566 296.28412598 -79.07421875 296.72265625 C-79.81244873 297.09140869 -80.55067871 297.46016113 -81.3112793 297.84008789 C-83.3264623 298.97446963 -83.3264623 298.97446963 -84 302 C-82.8003666 304.22434017 -81.56759872 306.21767605 -80.14453125 308.29296875 C-79.52492775 309.22116173 -79.52492775 309.22116173 -78.89280701 310.16810608 C-77.543463 312.18205447 -76.17875131 314.18499077 -74.8125 316.1875 C-73.88408082 317.56258301 -72.9560212 318.93790885 -72.02832031 320.31347656 C-65.63291812 329.76060746 -59.05829014 339.03406388 -52 348 C-51.30261719 348.89589844 -50.60523438 349.79179687 -49.88671875 350.71484375 C-47.95279757 353.16809446 -45.98704829 355.58960745 -44 358 C-43.19433594 358.9796875 -42.38867188 359.959375 -41.55859375 360.96875 C-34.87296895 369.02020192 -27.85308119 376.74779968 -20.6171875 384.30810547 C-19.52286799 385.45297779 -18.43976144 386.6086563 -17.3671875 387.77392578 C-15.97656887 389.24692908 -14.49370456 390.63164128 -13 392 C-9.54051214 392.14958506 -9.54051214 392.14958506 -6 391 C-4.52128211 390.64396423 -3.04211493 390.28978927 -1.5625 389.9375 C-0.386875 389.628125 0.78875 389.31875 2 389 C1.49701065 385.06753778 0.0795672 381.98521289 -1.72924805 378.48413086 C-17.27670468 348.16774994 -24.43971471 313.91310233 -28.61450195 280.38476562 C-28.87941416 277.99221247 -28.87941416 277.99221247 -30 276 C-33.48178885 276 -35.44426778 276.87702243 -38.64453125 278.23828125 Z M-177 330 C-176 332 -176 332 -176 332 Z M-60 420 C-60 421.32 -60 422.64 -60 424 C-48.65420865 425.16125665 -37.71429369 425.6507099 -27 421 C-27 420.67 -27 420.34 -27 420 C-37.89 420 -48.78 420 -60 420 Z M-92 468 C-88.4563741 470.11203638 -85.12748863 470.5549096 -81.0625 471.0625 C-79.85722656 471.21847656 -78.65195313 471.37445313 -77.41015625 471.53515625 C-75.94075924 471.69619788 -74.47061512 471.85049029 -73 472 C-71.6843103 472.13571411 -71.6843103 472.13571411 -70.34204102 472.27416992 C-60.77856224 473.13725514 -51.23088727 473.18613493 -41.63647461 473.18530273 C-38.83496742 473.18748252 -36.03385951 473.20568572 -33.23242188 473.22460938 C-18.26859994 473.27105836 -3.63645415 472.30500578 11 469 C11 468.67 11 468.34 11 468 C8.77077345 468.14491514 6.54162266 468.29099548 4.3125 468.4375 C2.33960486 468.56656791 0.36670837 468.69561526 -1.60620117 468.82446289 C-3.29015092 468.94794681 -4.97263865 469.09226152 -6.65356445 469.25170898 C-17.36513605 470.22105439 -28.066485 470.19546058 -38.8125 470.1875 C-40.30694138 470.18858765 -40.30694138 470.18858765 -41.83157349 470.18969727 C-55.97896656 470.18855881 -69.9096287 469.7621492 -83.97998047 468.1875 C-86.65857075 467.93887088 -89.31247921 467.93008076 -92 468 Z M-119 473 C-119.99 475.97 -120.98 478.94 -122 482 C-114.90080211 485.0017613 -107.92318094 487.25008783 -100.4375 489.0625 C-99.39263428 489.31926514 -98.34776855 489.57603027 -97.27124023 489.84057617 C-82.56694889 493.38957697 -67.82236732 496.09618689 -52.6640625 496.23828125 C-51.79528473 496.2480751 -50.92650696 496.25786896 -50.03140259 496.26795959 C-19.43068174 496.54167609 10.18818672 494.30335399 39 483 C38.41825155 477.6913151 38.41825155 477.6913151 36 473 C35.35095703 473.18175781 34.70191406 473.36351562 34.03320312 473.55078125 C-14.32420905 486.93572855 -64.40066326 490.19165385 -112.57421875 473.69921875 C-115.21982872 472.81535443 -115.21982872 472.81535443 -119 473 Z " fill="inherit" transform="translate(296,4)"></path>
</g></svg><svg id="name" viewBox="0 0 249.181640625 43.84375" width="249" height="43.81179015684154" x="0" y="128" data-v-8d8ae3dd="" style="fill: rgb(13, 19, 26);"><rect x="0" y="0" width="100%" height="100%" fill="none" data-v-8d8ae3dd=""></rect><g data-v-8d8ae3dd=""><path xmlns="http://www.w3.org/2000/svg" d="M18.33 25.92L18.33 25.92Q18.33 24.01 16.98 22.99Q15.63 21.97 12.13 20.83Q8.63 19.70 6.58 18.60L6.58 18.60Q1.01 15.59 1.01 10.49L1.01 10.49Q1.01 7.84 2.50 5.76Q4.00 3.68 6.79 2.52Q9.59 1.35 13.07 1.35L13.07 1.35Q16.58 1.35 19.32 2.62Q22.06 3.89 23.57 6.20Q25.09 8.51 25.09 11.46L25.09 11.46L18.35 11.46Q18.35 9.21 16.94 7.96Q15.52 6.72 12.96 6.72L12.96 6.72Q10.49 6.72 9.12 7.76Q7.75 8.80 7.75 10.51L7.75 10.51Q7.75 12.11 9.35 13.18Q10.96 14.26 14.08 15.21L14.08 15.21Q19.83 16.94 22.46 19.50Q25.09 22.06 25.09 25.88L25.09 25.88Q25.09 30.12 21.88 32.53Q18.67 34.95 13.23 34.95L13.23 34.95Q9.46 34.95 6.36 33.57Q3.26 32.19 1.63 29.78Q0 27.38 0 24.21L0 24.21L6.76 24.21Q6.76 29.63 13.23 29.63L13.23 29.63Q15.63 29.63 16.98 28.65Q18.33 27.67 18.33 25.92ZM35.56 0L35.56 12.85Q38.14 9.75 42.05 9.75L42.05 9.75Q49.95 9.75 50.07 18.93L50.07 18.93L50.07 34.50L43.57 34.50L43.57 19.11Q43.57 17.03 42.68 16.03Q41.78 15.03 39.69 15.03L39.69 15.03Q36.84 15.03 35.56 17.23L35.56 17.23L35.56 34.50L29.06 34.50L29.06 0L35.56 0ZM53.95 22.42L53.95 22.12Q53.95 18.51 55.34 15.68Q56.74 12.85 59.35 11.30Q61.97 9.75 65.43 9.75L65.43 9.75Q70.35 9.75 73.46 12.76Q76.57 15.77 76.93 20.93L76.93 20.93L76.97 22.60Q76.97 28.19 73.85 31.57Q70.73 34.95 65.47 34.95Q60.22 34.95 57.08 31.58Q53.95 28.21 53.95 22.42L53.95 22.42ZM60.44 22.60L60.44 22.60Q60.44 26.05 61.75 27.89Q63.05 29.72 65.47 29.72L65.47 29.72Q67.83 29.72 69.16 27.91Q70.48 26.10 70.48 22.12L70.48 22.12Q70.48 18.73 69.16 16.87Q67.83 15.00 65.43 15.00L65.43 15.00Q63.05 15.00 61.75 16.86Q60.44 18.71 60.44 22.60ZM102.85 22.24L102.85 22.57Q102.85 28.19 100.30 31.57Q97.75 34.95 93.42 34.95L93.42 34.95Q89.73 34.95 87.46 32.39L87.46 32.39L87.46 43.84L80.97 43.84L80.97 10.20L86.99 10.20L87.22 12.58Q89.57 9.75 93.37 9.75L93.37 9.75Q97.86 9.75 100.36 13.07Q102.85 16.40 102.85 22.24L102.85 22.24ZM96.36 22.10L96.36 22.10Q96.36 18.71 95.16 16.87Q93.95 15.03 91.66 15.03L91.66 15.03Q88.61 15.03 87.46 17.36L87.46 17.36L87.46 27.31Q88.65 29.72 91.71 29.72L91.71 29.72Q96.36 29.72 96.36 22.10ZM124.25 25.92L124.25 25.92Q124.25 24.01 122.91 22.99Q121.56 21.97 118.05 20.83Q114.55 19.70 112.51 18.60L112.51 18.60Q106.94 15.59 106.94 10.49L106.94 10.49Q106.94 7.84 108.43 5.76Q109.92 3.68 112.72 2.52Q115.52 1.35 119.00 1.35L119.00 1.35Q122.50 1.35 125.24 2.62Q127.98 3.89 129.50 6.20Q131.01 8.51 131.01 11.46L131.01 11.46L124.28 11.46Q124.28 9.21 122.86 7.96Q121.45 6.72 118.89 6.72L118.89 6.72Q116.42 6.72 115.04 7.76Q113.67 8.80 113.67 10.51L113.67 10.51Q113.67 12.11 115.28 13.18Q116.89 14.26 120.01 15.21L120.01 15.21Q125.76 16.94 128.39 19.50Q131.01 22.06 131.01 25.88L131.01 25.88Q131.01 30.12 127.80 32.53Q124.59 34.95 119.16 34.95L119.16 34.95Q115.38 34.95 112.28 33.57Q109.18 32.19 107.55 29.78Q105.93 27.38 105.93 24.21L105.93 24.21L112.69 24.21Q112.69 29.63 119.16 29.63L119.16 29.63Q121.56 29.63 122.91 28.65Q124.25 27.67 124.25 25.92ZM157.02 22.24L157.02 22.57Q157.02 28.19 154.48 31.57Q151.93 34.95 147.59 34.95L147.59 34.95Q143.91 34.95 141.64 32.39L141.64 32.39L141.64 43.84L135.15 43.84L135.15 10.20L141.17 10.20L141.39 12.58Q143.75 9.75 147.55 9.75L147.55 9.75Q152.04 9.75 154.53 13.07Q157.02 16.40 157.02 22.24L157.02 22.24ZM150.53 22.10L150.53 22.10Q150.53 18.71 149.33 16.87Q148.13 15.03 145.84 15.03L145.84 15.03Q142.78 15.03 141.64 17.36L141.64 17.36L141.64 27.31Q142.83 29.72 145.88 29.72L145.88 29.72Q150.53 29.72 150.53 22.10ZM167.38 0L167.38 12.85Q169.96 9.75 173.87 9.75L173.87 9.75Q181.78 9.75 181.89 18.93L181.89 18.93L181.89 34.50L175.40 34.50L175.40 19.11Q175.40 17.03 174.50 16.03Q173.60 15.03 171.51 15.03L171.51 15.03Q168.66 15.03 167.38 17.23L167.38 17.23L167.38 34.50L160.89 34.50L160.89 0L167.38 0ZM197.97 34.95L197.97 34.95Q192.63 34.95 189.27 31.67Q185.91 28.39 185.91 22.93L185.91 22.93L185.91 22.30Q185.91 18.64 187.32 15.76Q188.74 12.87 191.33 11.31Q193.93 9.75 197.25 9.75L197.25 9.75Q202.24 9.75 205.10 12.89Q207.97 16.04 207.97 21.81L207.97 21.81L207.97 24.46L192.49 24.46Q192.80 26.84 194.39 28.28Q195.97 29.72 198.40 29.72L198.40 29.72Q202.15 29.72 204.26 27.00L204.26 27.00L207.45 30.57Q205.99 32.64 203.50 33.79Q201.00 34.95 197.97 34.95ZM197.23 15.00L197.23 15.00Q195.30 15.00 194.10 16.31Q192.89 17.61 192.56 20.04L192.56 20.04L201.59 20.04L201.59 19.52Q201.54 17.36 200.42 16.18Q199.30 15.00 197.23 15.00ZM225.40 10.04L225.31 16.28Q223.98 16.10 222.97 16.10L222.97 16.10Q219.29 16.10 218.14 18.60L218.14 18.60L218.14 34.50L211.65 34.50L211.65 10.20L217.78 10.20L217.96 13.09Q219.92 9.75 223.37 9.75L223.37 9.75Q224.45 9.75 225.40 10.04L225.40 10.04ZM239.19 34.95L239.19 34.95Q233.84 34.95 230.48 31.67Q227.13 28.39 227.13 22.93L227.13 22.93L227.13 22.30Q227.13 18.64 228.54 15.76Q229.96 12.87 232.55 11.31Q235.14 9.75 238.47 9.75L238.47 9.75Q243.45 9.75 246.32 12.89Q249.18 16.04 249.18 21.81L249.18 21.81L249.18 24.46L233.71 24.46Q234.02 26.84 235.60 28.28Q237.19 29.72 239.61 29.72L239.61 29.72Q243.36 29.72 245.48 27.00L245.48 27.00L248.67 30.57Q247.21 32.64 244.71 33.79Q242.22 34.95 239.19 34.95ZM238.45 15.00L238.45 15.00Q236.51 15.00 235.31 16.31Q234.11 17.61 233.77 20.04L233.77 20.04L242.80 20.04L242.80 19.52Q242.76 17.36 241.63 16.18Q240.51 15.00 238.45 15.00Z"></path></g></svg><svg id="slogan" viewBox="0 0 244.365234375 19.0625" width="244" height="19.034008711984974" x="2.5" y="179.81179015684154" data-v-8d8ae3dd="" style="fill: rgb(13, 19, 26);"><rect x="0" y="0" width="100%" height="100%" fill="none" data-v-8d8ae3dd=""></rect><g data-v-8d8ae3dd=""><path xmlns="http://www.w3.org/2000/svg" d="M3.21 0.78L6.15 7.19L9.11 0.78L12.31 0.78L7.65 9.84L7.65 15L4.67 15L4.67 9.84L0 0.78L3.21 0.78ZM12.35 9.75L12.35 9.62Q12.35 8.05 12.96 6.82Q13.56 5.59 14.70 4.91Q15.84 4.24 17.34 4.24L17.34 4.24Q19.48 4.24 20.83 5.55Q22.19 6.86 22.34 9.10L22.34 9.10L22.36 9.82Q22.36 12.26 21.01 13.73Q19.65 15.20 17.36 15.20Q15.08 15.20 13.72 13.73Q12.35 12.27 12.35 9.75L12.35 9.75ZM15.18 9.82L15.18 9.82Q15.18 11.33 15.74 12.12Q16.31 12.92 17.36 12.92L17.36 12.92Q18.39 12.92 18.96 12.13Q19.54 11.35 19.54 9.62L19.54 9.62Q19.54 8.14 18.96 7.33Q18.39 6.52 17.34 6.52L17.34 6.52Q16.31 6.52 15.74 7.33Q15.18 8.13 15.18 9.82ZM30.51 15L30.43 13.93Q29.38 15.20 27.54 15.20L27.54 15.20Q25.84 15.20 24.95 14.22Q24.05 13.24 24.03 11.36L24.03 11.36L24.03 4.43L26.86 4.43L26.86 11.26Q26.86 12.91 28.36 12.91L28.36 12.91Q29.79 12.91 30.33 11.91L30.33 11.91L30.33 4.43L33.16 4.43L33.16 15L30.51 15ZM41.27 4.37L41.23 7.08Q40.65 7.00 40.21 7.00L40.21 7.00Q38.61 7.00 38.12 8.09L38.12 8.09L38.12 15L35.29 15L35.29 4.43L37.96 4.43L38.04 5.69Q38.89 4.24 40.39 4.24L40.39 4.24Q40.86 4.24 41.27 4.37L41.27 4.37ZM59.43 7.58L59.43 8.21Q59.43 10.31 58.69 11.89Q57.95 13.48 56.57 14.34Q55.19 15.20 53.40 15.20L53.40 15.20Q51.63 15.20 50.24 14.35Q48.86 13.50 48.10 11.92Q47.33 10.34 47.32 8.29L47.32 8.29L47.32 7.59Q47.32 5.49 48.08 3.89Q48.84 2.29 50.22 1.44Q51.60 0.59 53.38 0.59Q55.16 0.59 56.54 1.44Q57.92 2.29 58.68 3.89Q59.43 5.49 59.43 7.58L59.43 7.58ZM56.46 8.26L56.46 7.57Q56.46 5.33 55.66 4.17Q54.86 3.01 53.38 3.01L53.38 3.01Q51.90 3.01 51.10 4.16Q50.30 5.30 50.29 7.52L50.29 7.52L50.29 8.21Q50.29 10.39 51.09 11.59Q51.89 12.79 53.40 12.79L53.40 12.79Q54.87 12.79 55.66 11.64Q56.46 10.48 56.46 8.26L56.46 8.26ZM61.32 4.43L63.97 4.43L64.06 5.65Q65.20 4.24 67.10 4.24L67.10 4.24Q68.78 4.24 69.60 5.22Q70.42 6.21 70.44 8.17L70.44 8.17L70.44 15L67.62 15L67.62 8.24Q67.62 7.34 67.23 6.94Q66.84 6.53 65.93 6.53L65.93 6.53Q64.74 6.53 64.14 7.55L64.14 7.55L64.14 15L61.32 15L61.32 4.43ZM77.44 15.20L77.44 15.20Q75.12 15.20 73.66 13.77Q72.20 12.34 72.20 9.97L72.20 9.97L72.20 9.70Q72.20 8.11 72.81 6.85Q73.43 5.60 74.56 4.92Q75.68 4.24 77.13 4.24L77.13 4.24Q79.30 4.24 80.54 5.61Q81.79 6.97 81.79 9.48L81.79 9.48L81.79 10.63L75.06 10.63Q75.20 11.67 75.88 12.29Q76.57 12.92 77.63 12.92L77.63 12.92Q79.26 12.92 80.18 11.74L80.18 11.74L81.56 13.29Q80.93 14.19 79.84 14.69Q78.76 15.20 77.44 15.20ZM77.12 6.52L77.12 6.52Q76.28 6.52 75.76 7.09Q75.23 7.66 75.09 8.71L75.09 8.71L79.01 8.71L79.01 8.49Q78.99 7.55 78.51 7.04Q78.02 6.52 77.12 6.52ZM88.88 7.77L88.88 10.05L83.38 10.05L83.38 7.77L88.88 7.77ZM98.70 11.27L98.70 11.27Q98.70 10.44 98.12 10.00Q97.53 9.55 96.01 9.06Q94.48 8.56 93.59 8.09L93.59 8.09Q91.17 6.78 91.17 4.56L91.17 4.56Q91.17 3.41 91.82 2.50Q92.47 1.60 93.69 1.09Q94.90 0.59 96.42 0.59L96.42 0.59Q97.94 0.59 99.13 1.14Q100.32 1.69 100.98 2.70Q101.64 3.70 101.64 4.98L101.64 4.98L98.71 4.98Q98.71 4.00 98.10 3.46Q97.48 2.92 96.37 2.92L96.37 2.92Q95.29 2.92 94.70 3.37Q94.10 3.83 94.10 4.57L94.10 4.57Q94.10 5.26 94.80 5.73Q95.50 6.20 96.86 6.61L96.86 6.61Q99.36 7.36 100.50 8.48Q101.64 9.59 101.64 11.25L101.64 11.25Q101.64 13.10 100.24 14.15Q98.85 15.20 96.48 15.20L96.48 15.20Q94.84 15.20 93.50 14.59Q92.15 13.99 91.44 12.95Q90.73 11.90 90.73 10.53L90.73 10.53L93.67 10.53Q93.67 12.88 96.48 12.88L96.48 12.88Q97.53 12.88 98.12 12.46Q98.70 12.03 98.70 11.27ZM103.99 1.84L106.82 1.84L106.82 4.43L108.62 4.43L108.62 6.50L106.82 6.50L106.82 11.78Q106.82 12.36 107.04 12.62Q107.27 12.87 107.90 12.87L107.90 12.87Q108.37 12.87 108.73 12.80L108.73 12.80L108.73 14.94Q107.90 15.20 107.02 15.20L107.02 15.20Q104.05 15.20 103.99 12.20L103.99 12.20L103.99 6.50L102.45 6.50L102.45 4.43L103.99 4.43L103.99 1.84ZM109.46 9.75L109.46 9.62Q109.46 8.05 110.07 6.82Q110.67 5.59 111.81 4.91Q112.95 4.24 114.45 4.24L114.45 4.24Q116.59 4.24 117.94 5.55Q119.30 6.86 119.45 9.10L119.45 9.10L119.47 9.82Q119.47 12.26 118.12 13.73Q116.76 15.20 114.47 15.20Q112.19 15.20 110.83 13.73Q109.46 12.27 109.46 9.75L109.46 9.75ZM112.29 9.82L112.29 9.82Q112.29 11.33 112.85 12.12Q113.42 12.92 114.47 12.92L114.47 12.92Q115.50 12.92 116.07 12.13Q116.65 11.35 116.65 9.62L116.65 9.62Q116.65 8.14 116.07 7.33Q115.50 6.52 114.45 6.52L114.45 6.52Q113.42 6.52 112.85 7.33Q112.29 8.13 112.29 9.82ZM130.72 9.67L130.72 9.81Q130.72 12.26 129.61 13.73Q128.51 15.20 126.62 15.20L126.62 15.20Q125.02 15.20 124.03 14.08L124.03 14.08L124.03 19.06L121.21 19.06L121.21 4.43L123.83 4.43L123.93 5.47Q124.95 4.24 126.60 4.24L126.60 4.24Q128.55 4.24 129.64 5.68Q130.72 7.13 130.72 9.67L130.72 9.67ZM127.90 9.61L127.90 9.61Q127.90 8.13 127.38 7.33Q126.86 6.53 125.86 6.53L125.86 6.53Q124.53 6.53 124.03 7.55L124.03 7.55L124.03 11.88Q124.55 12.92 125.88 12.92L125.88 12.92Q127.90 12.92 127.90 9.61ZM149.32 7.58L149.32 8.21Q149.32 10.31 148.57 11.89Q147.83 13.48 146.45 14.34Q145.07 15.20 143.28 15.20L143.28 15.20Q141.51 15.20 140.13 14.35Q138.74 13.50 137.98 11.92Q137.22 10.34 137.21 8.29L137.21 8.29L137.21 7.59Q137.21 5.49 137.96 3.89Q138.72 2.29 140.10 1.44Q141.48 0.59 143.26 0.59Q145.04 0.59 146.42 1.44Q147.80 2.29 148.56 3.89Q149.32 5.49 149.32 7.58L149.32 7.58ZM146.35 8.26L146.35 7.57Q146.35 5.33 145.55 4.17Q144.75 3.01 143.26 3.01L143.26 3.01Q141.79 3.01 140.99 4.16Q140.19 5.30 140.18 7.52L140.18 7.52L140.18 8.21Q140.18 10.39 140.98 11.59Q141.78 12.79 143.28 12.79L143.28 12.79Q144.76 12.79 145.55 11.64Q146.34 10.48 146.35 8.26L146.35 8.26ZM151.20 4.43L153.86 4.43L153.95 5.65Q155.08 4.24 156.98 4.24L156.98 4.24Q158.66 4.24 159.48 5.22Q160.30 6.21 160.32 8.17L160.32 8.17L160.32 15L157.50 15L157.50 8.24Q157.50 7.34 157.11 6.94Q156.72 6.53 155.81 6.53L155.81 6.53Q154.62 6.53 154.02 7.55L154.02 7.55L154.02 15L151.20 15L151.20 4.43ZM165.44 0L165.44 15L162.61 15L162.61 0L165.44 0ZM170.74 4.43L170.74 15L167.91 15L167.91 4.43L170.74 4.43ZM167.74 1.70L167.74 1.70Q167.74 1.06 168.17 0.65Q168.59 0.24 169.33 0.24L169.33 0.24Q170.05 0.24 170.48 0.65Q170.91 1.06 170.91 1.70L170.91 1.70Q170.91 2.34 170.47 2.75Q170.04 3.16 169.33 3.16Q168.61 3.16 168.18 2.75Q167.74 2.34 167.74 1.70ZM173.01 4.43L175.66 4.43L175.75 5.65Q176.88 4.24 178.79 4.24L178.79 4.24Q180.47 4.24 181.29 5.22Q182.11 6.21 182.13 8.17L182.13 8.17L182.13 15L179.31 15L179.31 8.24Q179.31 7.34 178.92 6.94Q178.53 6.53 177.62 6.53L177.62 6.53Q176.43 6.53 175.83 7.55L175.83 7.55L175.83 15L173.01 15L173.01 4.43ZM189.13 15.20L189.13 15.20Q186.81 15.20 185.35 13.77Q183.89 12.34 183.89 9.97L183.89 9.97L183.89 9.70Q183.89 8.11 184.50 6.85Q185.12 5.60 186.25 4.92Q187.37 4.24 188.82 4.24L188.82 4.24Q190.99 4.24 192.23 5.61Q193.48 6.97 193.48 9.48L193.48 9.48L193.48 10.63L186.75 10.63Q186.88 11.67 187.57 12.29Q188.26 12.92 189.32 12.92L189.32 12.92Q190.95 12.92 191.87 11.74L191.87 11.74L193.25 13.29Q192.62 14.19 191.53 14.69Q190.45 15.20 189.13 15.20ZM188.81 6.52L188.81 6.52Q187.97 6.52 187.45 7.09Q186.92 7.66 186.78 8.71L186.78 8.71L190.70 8.71L190.70 8.49Q190.68 7.55 190.20 7.04Q189.71 6.52 188.81 6.52ZM207.62 11.27L207.62 11.27Q207.62 10.44 207.03 10.00Q206.45 9.55 204.92 9.06Q203.40 8.56 202.51 8.09L202.51 8.09Q200.09 6.78 200.09 4.56L200.09 4.56Q200.09 3.41 200.74 2.50Q201.39 1.60 202.60 1.09Q203.82 0.59 205.33 0.59L205.33 0.59Q206.86 0.59 208.05 1.14Q209.24 1.69 209.90 2.70Q210.56 3.70 210.56 4.98L210.56 4.98L207.63 4.98Q207.63 4.00 207.01 3.46Q206.40 2.92 205.28 2.92L205.28 2.92Q204.21 2.92 203.61 3.37Q203.02 3.83 203.02 4.57L203.02 4.57Q203.02 5.26 203.72 5.73Q204.41 6.20 205.77 6.61L205.77 6.61Q208.27 7.36 209.41 8.48Q210.56 9.59 210.56 11.25L210.56 11.25Q210.56 13.10 209.16 14.15Q207.76 15.20 205.40 15.20L205.40 15.20Q203.76 15.20 202.41 14.59Q201.06 13.99 200.36 12.95Q199.65 11.90 199.65 10.53L199.65 10.53L202.59 10.53Q202.59 12.88 205.40 12.88L205.40 12.88Q206.45 12.88 207.03 12.46Q207.62 12.03 207.62 11.27ZM215.11 0L215.11 5.59Q216.23 4.24 217.93 4.24L217.93 4.24Q221.37 4.24 221.42 8.23L221.42 8.23L221.42 15L218.59 15L218.59 8.31Q218.59 7.40 218.20 6.97Q217.81 6.53 216.90 6.53L216.90 6.53Q215.66 6.53 215.11 7.49L215.11 7.49L215.11 15L212.29 15L212.29 0L215.11 0ZM223.11 9.75L223.11 9.62Q223.11 8.05 223.71 6.82Q224.32 5.59 225.45 4.91Q226.59 4.24 228.10 4.24L228.10 4.24Q230.23 4.24 231.59 5.55Q232.94 6.86 233.10 9.10L233.10 9.10L233.12 9.82Q233.12 12.26 231.76 13.73Q230.40 15.20 228.12 15.20Q225.83 15.20 224.47 13.73Q223.11 12.27 223.11 9.75L223.11 9.75ZM225.93 9.82L225.93 9.82Q225.93 11.33 226.49 12.12Q227.06 12.92 228.12 12.92L228.12 12.92Q229.14 12.92 229.72 12.13Q230.29 11.35 230.29 9.62L230.29 9.62Q230.29 8.14 229.72 7.33Q229.14 6.52 228.10 6.52L228.10 6.52Q227.06 6.52 226.49 7.33Q225.93 8.13 225.93 9.82ZM244.37 9.67L244.37 9.81Q244.37 12.26 243.26 13.73Q242.15 15.20 240.26 15.20L240.26 15.20Q238.66 15.20 237.68 14.08L237.68 14.08L237.68 19.06L234.85 19.06L234.85 4.43L237.47 4.43L237.57 5.47Q238.59 4.24 240.24 4.24L240.24 4.24Q242.20 4.24 243.28 5.68Q244.37 7.13 244.37 9.67L244.37 9.67ZM241.54 9.61L241.54 9.61Q241.54 8.13 241.02 7.33Q240.50 6.53 239.50 6.53L239.50 6.53Q238.17 6.53 237.68 7.55L237.68 7.55L237.68 11.88Q238.19 12.92 239.52 12.92L239.52 12.92Q241.54 12.92 241.54 9.61Z"></path></g></svg></svg>